<?xml version="1.0" encoding="utf-8"?>
<!-- Generator: Adobe Illustrator 24.0.1, SVG Export Plug-In . SVG Version: 6.00 Build 0)  -->
<svg version="1.1" id="Layer_1" xmlns="http://www.w3.org/2000/svg" xmlns:xlink="http://www.w3.org/1999/xlink" x="0px" y="0px"
	 viewBox="0 0 5000 2000" style="enable-background:new 0 0 5000 2000;" xml:space="preserve">
<g>
	<path d="M2686.55,853.22c3.25,0,6.65,2.22,10.11,6.6c6.15,7.86,8.6,9.35,10.98,9.35c7.11,0,10.22-9.72,11.24-12.88
		c1.87-5.62,2.78-10.12,2.78-13.75c0-5.05-2.66-11.09-8.13-18.49c-6.41-8.6-13.12-12.96-19.93-12.96
		c-12.84,0-23.99,11.77-34.24,36.41c-6.98,25.46-11.93,46.04-14.74,61.36c-4.7-22.44-12.02-41.2-21.83-55.9
		c-11.67-17.45-25.21-26.29-40.23-26.29c-2.58,0-4.95,1.12-13.88,16.07c-8.3,14.02-8.99,16.93-8.99,18.71
		c0,4.87,3.72,10.6,11.36,17.52c7.52,6.88,13.72,10.22,18.94,10.22c5.28,0,8.63-1.62,9.96-4.77c0.06-0.15,0.52-0.34,1.35-0.4
		c1.19,1,5.57,6.3,15.97,33.97c7.61,20.06,13.19,37.53,16.6,51.99c-11.36,6.59-18.21,22.33-20.9,48.02c-0.14,1.68-0.21,3.1-0.21,4.3
		c0,6.44,2.69,7.79,4.95,7.79c0.55,0,1.05-0.04,1.65-0.31c-10.13,10.1-15.26,24.92-15.26,44.13c0,3.88,1.31,16.72,12.62,83.1
		c8.33,48.7,12.55,87.73,12.55,116.01c0,27.17,1.51,29.59,5.83,29.59h0.58l0.55-0.18c2.39-0.78,3.55-3.09,5.39-10.85
		c3.25-15.26,4.9-30.99,4.9-46.74c0-26.91-3.12-60.66-9.27-100.3c-5.2-33.37-9.14-58.19-14.17-74.03
		c5.7-5.56,14.02-10.67,27.05-14.95c12.09-3.21,24.23-6.56,36.37-10.05c2.45-0.75,4.78-3.38,10.06-15.14
		c4.93-11.09,5.5-14.74,5.5-16.52l-0.05-0.96c-1.39-8.36-8.65-17.75-22.23-28.73c-11.05-8.93-20.3-14.35-28.07-16.43
		c3.57-9.45,7.2-25.06,11.03-47.42C2673.94,858.05,2683.8,853.22,2686.55,853.22z M2623.16,1026.4c1.44-1.63,3.35-3.99,5.97-7.39
		c6.13-7.96,8.48-8.22,8.57-8.22c3.28,0,6.8,1.37,10.49,4.09C2636.53,1018.66,2628.29,1022.45,2623.16,1026.4z"/>
	<path d="M3869.91,1331.82c10.76-12.18,19.65-28.05,26.47-47.25c5.19,5.33,12.01,10.71,20.33,16.03
		c12.89,8.75,23.23,13.01,31.61,13.01c10.69,0,18.25-10.77,23.13-32.9c1.11-4.96,1.65-9.68,1.65-14.43
		c0-13.48-3.7-25.34-11.01-35.27c-7.59-10.32-15.87-15.55-24.58-15.55c-12.21,0-23.34,9.7-33.1,28.84c-0.85-0.26-1.7-0.39-2.55-0.39
		c-1.81,0-4.52,0.6-7.57,4.07c-10.89,17.91-18.93,32.22-24.31,43.31c-12.53,18.84-42.68,41.26-89.44,66.53
		c-64.47,30.52-113.25,52.42-145.13,65.17c-19.3,8.75-19.3,9.68-19.3,12.44c0,1.33,0.59,4.43,6.06,4.43c2.67,0,7.45-0.56,15.05-1.77
		c7.79-1.26,26.64-5.58,57.59-13.21c27.65-6.66,42.55-10.16,44.01-10.36c4.73,0,15.18-2.26,51.01-21.75
		C3823.41,1374.78,3850.36,1354.26,3869.91,1331.82z M3933.63,1255.4c2.62,0,5.95,2.25,9.65,6.51c4.04,4.67,6.42,8.79,7.02,12.03
		c0.08,0.59,0.14,1.15,0.2,1.65c-0.17-0.07-0.36-0.15-0.55-0.23c-11.28-5.23-20.18-10.4-26.54-15.4
		C3926.22,1256.89,3929.58,1255.4,3933.63,1255.4z"/>
	<path d="M2874.58,1266.98c-9.55-0.58-18.71,6.48-27.26,20.99c-0.65-0.24-1.31-0.39-1.97-0.43c-1.42-0.09-3.56,0.26-6.12,2.82
		c-9.37,13.5-16.33,24.31-21.07,32.73c-10.69,14.14-35.34,30.25-73.12,47.81c-51.88,20.82-91.07,35.64-116.61,44.1
		c-15.51,5.93-15.56,6.66-15.69,8.82c-0.06,1.04,0.25,3.5,4.53,3.76c2.09,0.13,5.86-0.09,11.86-0.67c6.16-0.62,21.1-3.11,45.68-7.61
		c21.94-3.9,33.77-5.93,34.91-6.02c3.7,0.22,11.98-1.05,40.94-14.59c27.12-12.48,49.17-27.25,65.54-43.88
		c8.99-9.02,16.7-21.01,22.95-35.71c3.8,4.41,8.88,8.95,15.14,13.5c9.67,7.46,17.56,11.28,24.11,11.67
		c8.36,0.51,14.79-7.56,19.65-24.64c1.1-3.83,1.75-7.49,1.97-11.21c0.64-10.54-1.7-20-6.95-28.11
		C2887.62,1271.88,2881.4,1267.39,2874.58,1266.98z M2881.48,1314.42c-8.58-4.63-15.3-9.09-20.03-13.31
		c2.34-2.26,5.04-3.27,8.2-3.08c2.05,0.12,4.55,2.04,7.24,5.55c2.94,3.84,4.6,7.18,4.92,9.74c0.03,0.47,0.06,0.9,0.08,1.3
		C2881.77,1314.57,2881.63,1314.5,2881.48,1314.42z"/>
	<path d="M1873.75,1290.99c-9.38-1.86-19.42,3.89-29.84,17.11c-0.61-0.33-1.25-0.56-1.9-0.69c-1.39-0.28-3.57-0.23-6.44,1.97
		c-11.11,12.1-19.47,21.88-25.3,29.58c-12.51,12.57-39.11,25.19-78.91,37.48c-54.22,13.61-95.05,23-121.5,27.92
		c-16.17,3.78-16.31,4.49-16.74,6.61c-0.2,1.03-0.22,3.5,3.98,4.33c2.05,0.41,5.82,0.71,11.84,0.94c6.18,0.22,21.33-0.22,46.29-1.36
		c22.27-0.9,34.26-1.31,35.41-1.25c3.64,0.72,12.01,0.58,42.53-8.92c28.56-8.7,52.41-20.35,70.87-34.62
		c10.13-7.72,19.39-18.56,27.57-32.27c3.17,4.89,7.59,10.06,13.18,15.42c8.57,8.7,15.87,13.55,22.31,14.83
		c8.22,1.63,15.67-5.49,22.8-21.75c1.61-3.64,2.75-7.19,3.47-10.84c2.06-10.36,1.02-20.05-3.08-28.79
		C1886.02,1297.61,1880.45,1292.32,1873.75,1290.99z M1874.56,1339.2c-0.12-0.08-0.25-0.17-0.39-0.26
		c-7.87-5.74-13.93-11.08-18.04-15.89c2.62-1.92,5.44-2.56,8.55-1.94c2.01,0.4,4.23,2.64,6.43,6.48c2.4,4.21,3.59,7.74,3.56,10.32
		C1874.63,1338.36,1874.6,1338.8,1874.56,1339.2z"/>
	<path d="M3490.78,1040.39c5.99,66.14,41.53,99.61,70.26,106.44c11.47,4.04,36.36,7.67,55.93,7.67c40.44,0,80.9-11.25,121.35-34.2
		c23.24-12.89,52.94-34.61,89.08-65.02c9.63-18.02,16.81-34.31,21.41-48.74c2.87-6.14,2.55-9.22-0.93-9.31
		c-2.03,0.41-5.53,2.55-10.24,6.44c-22.92,20.17-48.02,38-75.05,53.55c-33.18,19.06-60.1,28.58-80.79,28.47
		c-40.05,0.11-72.91-17.82-98.72-53.66c-21-29.27-31.55-59.17-31.65-89.59c13.72-12.08,35.23-22.32,64.72-30.83
		c29.49-8.4,58.37-12.59,86.43-12.7c19.16,0.11,41.07,4.52,65.74,13.31c6.44,2.46,11.17,3.59,14.04,3.5
		c2.46,0.1,3.58-0.52,3.58-1.95c0-1.84-3.07-5.43-9.33-10.65c-36.76-31.13-78.64-46.7-125.53-46.8
		c-35.23,0.11-64.83,10.55-88.79,31.44c-27.76,24.69-41.68,59.8-41.78,105.47c0.1,29.19,12.4,59.5,36.97,90.82l0.04,1.52
		c-6.42-1.37-11.73-3.76-15.88-7.19c-9.82-8.37-17.13-24.3-21.87-47.77c-4.15-20.61-7.31-73.22-9.43-157.93
		c-0.24-8.7-0.49-17.19-0.76-25.47c69.35-29.91,131.96-55.67,187.78-77.33c3.2-2.76,7.3-10.65,12.26-23.9
		c0.91-2.4,1.52-4.5,1.49-5.76c-0.02-0.82-0.34-1.55-0.79-1.84c-0.23-0.07-0.54-0.22-0.97-0.2c-1.41,0.03-3.84,0.78-7.38,2.19
		c-67.2,26.47-131.69,51.87-193.5,76.13c-1.44-36.44-3.18-68.23-5.12-95.31c0.07,0,0.13,0.01,0.2,0.01
		c-4.18-61.71-10.04-113.38-19.81-154.77c-1.11-4.52-2.35-6.88-3.74-6.96c-1.17-0.07-2.69,1.98-4.48,6.17
		c-4.13,9.57-8.95,27.06-14.44,52.5c3.33,34.34,5.89,61.42,7.71,81.29c-0.07,0-0.14,0-0.21,0c3.95,39.35,6.89,82.44,8.81,129.26
		c-11.84,4.64-23.59,9.24-35.23,13.79c-6.4,14.71-11.11,28.18-14.08,40.42c17.18-7.63,33.99-15.03,50.45-22.21
		c1.06,35.03,1.59,72.02,1.59,110.96c0,42.24-5.73,72.2-17.18,89.7c-15.47,23.99-42.34,35.96-80.58,36.11v-0.06
		c-12.22,0.1-23.66-3.65-34.3-11.34c-12.03-8.48-18.04-19.22-18.04-32.43c0-5.22,1.18-10.84,3.35-16.86
		c0.89-1.97,1.28-3.65,1.28-5.22c0-2.76-1.18-4.24-3.75-4.34c-2.56,0.1-5.52,1.77-8.87,4.93c-10.05,15.18-20.11,30.46-29.97,45.64
		c-15.07,20.41-34.2,30.85-57.21,31.42l0-0.11c-22.99-0.76-47.18-9.88-72.53-27.35c-9.56-6.56-30.34-23.97-62.42-52.27
		c-50.4-44.29-168.32-134.79-235-175.67c-27.66-16.92-55.89-32.83-84.66-47.71c-1.99-0.96-2.94-2.13-2.9-3.22
		c0.03-0.82,0.69-1.84,1.85-2.75c41.54-31.68,118.79-71.22,231.8-118.63c111.95-46.82,182.83-69.72,212.69-68.73
		c18.64,0.62,27.86,4.45,27.63,11.52c-0.04,1.24-0.39,2.48-1.05,3.7c-7.04,11.62-27.74,35.78-62.17,72.48
		c-4.09,4.23-10.17,13.49-18.34,27.76c-9.03,15.51-14.28,26.46-15.74,32.85c-1.82,7.84-2.77,13.05-2.86,15.61
		c-0.04,1.2,0.15,1.77,0.46,1.78c0.98,0.03,3.73-4.24,8.17-12.83c6.66-12.66,19.15-28.99,37.43-48.96
		c11.64-12.3,23.11-24.5,34.53-36.59c30.66-35.79,46.38-66.03,47.19-90.75c0.36-10.79-1.48-18.49-5.48-23.09
		c-4.01-4.55-11.57-7.09-22.79-7.46c-37.74-1.25-116.03,22.61-234.85,71.43c-117.83,48.34-194.86,87.73-231.16,118.34
		c-5.99,5.04-11.8,17.33-17.39,36.84c-5.39,18.17-8.29,33.72-8.72,46.8c-0.22,6.7,0.47,10.78,2.08,12.23
		c51.09,42.86,161.61,133.64,212.9,176.5c44.78,38.54,71.48,71.44,80.15,98.7c0.34,1.1,0.5,2.11,0.47,3.14
		c-0.07,2.18-1.02,4.22-2.96,6.13c-16.42,18.39-35.37,28.44-56.57,32.08c-2.69,0.44-5.35,0.79-7.95,1.05
		c-2.38,0.23-4.78,0.39-7.22,0.47l0,0.06c-4.4,0.2-8.47,0.16-12-0.05c-12.15-0.5-21.32-3.28-27.43-8.41
		c-6.02-5.04-10.01-7.65-11.97-7.83c-2.15-0.02-3.48,3.5-3.83,10.64c-0.13,2.68-0.74,4.26-1.94,4.83c-0.72,0.05-2.32-0.2-4.88-0.86
		c-2.57-0.57-4.61-0.94-6.12-1.1c-32.69-1.5-61.91,3.07-87.75,13.72c-25.76,10.74-55.72,30.49-89.88,59.26
		c-31.19,30.25-62.46,60.33-93.73,90.4c-36.17,33.32-66.75,49.29-91.57,48.08c-12.95-0.63-22.73-5.67-29.34-15.12
		c-6.61-9.45-9.61-21.41-8.9-35.97c0.94-19.29,8.28-45.15,22.03-77.51c13.74-32.27,20.67-51.26,20.94-56.89
		c0.07-1.43-0.25-2.16-0.96-2.28c-1.79,0-4.34,2.65-7.64,7.95c-30.89,53.63-47.18,97.59-48.85,132.05
		c-1.21,24.91,4.82,46.15,18.11,63.71c13.29,17.56,29.22,26.75,47.79,27.66c25.27,1.23,55.2-14.14,89.88-46.28
		c36.76-36.16,73.51-72.23,110.26-108.39c39.27-34.43,82.3-50.59,129.09-48.4c11.16,0.63,19.49,2.38,24.9,5.15
		c0.37,23.74,9.55,44.77,27.62,63.19c15.95,16.17,31.39,24.53,46.21,25.25c9.29,0.45,14.51-11.2,15.67-35.13
		c0.8-16.37-1.39-32.96-6.68-49.78c12.52-4.33,25.1-12.86,37.73-25.62c22.37-22.54,34.04-49.91,35.11-82.11
		c0.34-10.38-3.71-26.22-12.11-47.49c-1.92-4.64-2.86-7.59-2.83-8.62c0.01-0.25,0.18-0.51,0.34-0.51c0.41,0.01,2.55,1.44,6.41,4.27
		c16.59,12.19,36.43,29.68,59.54,52.49c20.75,20.22,36.67,33.86,47.87,40.88c18.09,10.99,38.95,16.41,62.37,17.19l0-0.11
		c28.56-0.18,55.02-23.14,79.47-69.09c6.21,19.02,16.26,33.51,30.06,43.47c12.02,8.92,25.09,13.44,39.2,13.5v0c0.03,0,0.05,0,0.08,0
		c0.21,0,0.42,0.01,0.64,0.01v-0.02c22.59-0.14,43.03-6.96,61.36-20.49C3471.77,1117.74,3494.83,1085.08,3490.78,1040.39z"/>
	<path d="M4786.26,940.05c-5.45-110.73-14.74-243.18-14.71-244.46c0.08-3.56,0.6-5.35,1.44-5.33c0.42,0.01,1.16,0.5,1.83,1.58
		c11.83,14.25,19.8,21.45,23.57,21.54c1.7,0.04,2.7-1.47,2.77-4.34c0.06-2.56-0.48-7.03-1.61-13.44
		c-2.37-7.7-9.54-28.66-21.44-62.89c-11.58-32.95-18.97-53.11-22.2-60.41c-1.61-3.86-2.99-5.81-4.27-5.84
		c-1.28-0.03-2.6,1.69-3.94,5.01c-12.55,27.78-18.92,45.31-19.08,52.5c6.07,13.36,8.86,30.18,8.39,50.58
		c-0.53,22.57,8.89,173.15,15.1,298.94c6.16,125.78,9.06,197.6,8.65,215.44c-0.68,29.32-3.84,46.31-9.47,50.8
		c-19.45,15.33-39.33,22.68-59.67,22.2l0,0c-12.63-0.05-24.06-4.32-32.2-13.31c-8.28-9.05-12.53-20.94-12.53-35.69
		c0-1.83,0.29-4.57,0.75-8.45c0.48-3.76,0.67-6.5,0.67-8.34c0-4.57-1.22-6.91-3.77-7.01c-3.11,0.1-5.84,2.64-8.28,7.73
		c-22.87,50.24-50.35,75.35-82.46,75.26c-12.15,0.1-21.93-6.1-29.37-18.51c-5.65-9.36-8.57-17.7-8.57-25.02
		c0-2.85,1.61-9.36,4.71-19.53c2.46-7.53,1.9-11.39-1.69-11.5c-1.12,0.11-9.21,8.65-24.08,25.74
		c-16.01,18.6-25.04,28.68-27.02,30.31c-21.84,18.92-44.81,28.38-68.71,28.27c-16.76,0.11-30.5-3.66-41.14-11.39
		c-11.11-7.93-16.66-19.32-16.66-33.97c0-6.51,1.22-13.53,3.48-21.25c2.36-7.54,0.85-11.4-4.42-11.5c-3.3,0.09-6.78,2.14-10.54,6.1
		c-30.31,33.26-49.79,53.18-58.45,59.7c-21.47,16.57-46.6,24.8-75.4,24.71v0.21c-13.51-0.3-23.93-3.33-31.33-9.28
		c-10.54-9.06-18.17-25.75-23-50.07c-4.02-21.29-6.8-76.44-8.33-165.5c-1.44-98.73-8.13-239.51-13.56-286.47
		c-7.72-69.86-16.95-170.86-30.42-216.62c-1.65-4.65-3.12-7.07-4.39-7.08c-1.28-0.01-2.81,2.37-4.56,6.98
		c-2.62,6.36-6.45,24.83-11.43,55.43c8.29,53.36,12.38,137.71,15.03,166.64c10.08,87.87,17.7,258.68,16.36,376.55
		c-0.45,39.67-7.68,75.07-21.69,106.2c0.79-3.93,1.47-8.02,2-12.29c6.73-54.08-22.52-123.77-87.69-209.1
		c-32.17-40.9-64.33-82.01-96.41-123.32c-2.52-3.3-5.25-7.04-8.15-11.14c7.58-7.11,14.27-14.34,20.04-21.69
		c9.06,6.07,15.12,11.39,18.05,15.85l2.48,3.78l2.69-3.63c11.09-14.95,16.87-25.98,17.68-33.72l0.12-1.12l-0.62-0.95
		c-3.53-5.36-10.39-11.25-20.92-17.95c5.66-16.09,8.73-30.89,9.12-44.04c0.3-10.06-1.12-17.56-4.32-22.92
		c-3.44-5.73-8.76-8.74-15.85-8.95c-13.46-0.29-26.8,6.58-39.72,20.71c-12.85,13.98-19.57,27.95-19.97,41.51
		c-0.42,14.25,10.1,27.56,32.12,40.62c-4.4,4.13-9.24,8.3-14.5,12.52c-30.86-46.76-72.99-118.42-103.18-170.81
		c98.82-43.75,185.58-80.03,260.23-109c3.2-2.76,7.3-10.65,12.26-23.9c0.91-2.4,1.52-4.5,1.49-5.76c-0.02-0.82-0.34-1.55-0.79-1.84
		c-0.23-0.07-0.54-0.22-0.97-0.2c-1.41,0.03-3.84,0.78-7.38,2.19c-91.6,36.08-178.18,70.19-259.79,102.09
		c-4.18,9.6-7.62,18.67-10.35,27.22c-16.47-28.66-28.54-50.1-31.83-55.96c15.17,5.32,26.15,8.4,32.91,9.24
		c4.65,0.58,7.08,0.02,7.29-1.67c0.31-2.53-2.2-6.49-7.54-11.88l-72.67-71.44c-4.96-4.91-8.51-7.5-10.62-7.76
		c-2.96-0.37-4.96,3.67-6.01,12.12l-5.28,42.46c-0.58,4.65,0.69,8.24,3.81,10.77c5.49,4.12,10.48,10.53,14.99,19.24
		c13.8,26.59,104.37,198.78,112.72,213.97c9.04,14.59,19.65,30.62,31.84,48.08c-13.86,8.62-29.33,17.37-46.36,26.23
		c-67.11,35.07-104.75,55.12-111.87,59.57c-10.18,6.35-12.07,8.73-12.14,11.14l-0.03,1.3l0.9,0.95c1.36,1.45,2.78,1.78,3.71,1.8
		c0.07,0,0.16,0,0.25,0c1.59,0,4.71-0.44,13.63-3.25c70.31-22.93,126.28-48.33,167.44-75.92c29.98,41.47,67.76,90.03,113.41,145.71
		c60.45,74.87,91.49,138.79,93,191.75c0.17,9.64,0.39,17.88,0.66,24.73c-17.21,24.51-39.72,45.68-67.57,63.47
		c-63.77,38.02-110.17,65.16-139.25,81.44c-5.57,3.34-8.31,5.86-8.33,7.56c-0.02,1.39,1.94,2.05,5.67,2.09
		c0.9,0.01,2.07-0.03,3.19-0.07c14.5-1.54,37.28-6.17,68.39-13.91c31.11-7.74,53.06-14.3,65.84-19.69
		c32.9-14.58,62.09-39.8,87.56-75.75c11.24-15.62,23.1-52.37,35.68-110.23c2.43,29.54,6.91,52.45,13.4,68.76
		c-0.44-0.13-0.91-0.15-1.36-0.02c-1.36,0.4-2.86,1.69-6.45,7.1c-5.84,8.92-12.34,23.68-19.34,43.86
		c-8.18,23.14-12.1,40.84-11.68,52.59c0.04,1.01,0.12,1.97,0.2,2.99c0.71,8.26,2.85,15.01,6.36,20.04c3.62,5.2,8.66,7.91,14.79,7.91
		c0.61,0,1.23-0.03,1.86-0.08l0.36-0.03c6.45-0.55,12.05-4.97,16.65-13.14c4.38-7.75,6.89-16.43,7.47-25.94c0-0.59,0-1.23-0.03-1.65
		c-0.05-0.57-0.11-1.28-0.65-2.15c-0.73-0.97-1.57-1.43-2.61-1.33c-0.67,0.05-1.29,0.35-1.78,0.84c-0.81,0.64-1.48,1.61-2.07,3.02
		c-4.55,8.71-9.22,13.74-14,14.99c-0.11,0.04-0.26,0.05-0.53,0.07c-1.46,0.12-3.15-0.75-5.05-2.64c-3.06-2.9-4.9-7.71-5.47-14.29
		c-0.42-4.97-0.08-10.69,1.03-17.03c2.75-16.39,10.1-38.37,21.86-65.39c1.22-3.07,1.8-4.79,2.05-5.89c1.02,2.27,2.08,4.4,3.18,6.38
		c13.76,24.91,36.56,37.51,68.44,37.88l0-0.04c27.26-0.1,53.22-11.79,77.96-35.29c5.75-5.28,18.36-20.43,37.94-45.66
		c3.19-3.96,6.3-6.01,9.41-6.1c1.78,0.1,2.72,1.22,2.91,3.46c0.75,20.34,4.24,35.69,10.27,45.86c9.97,16.58,27.76,24.81,53.18,24.72
		c22.87,0.09,45.93-11.09,69.28-33.56c14.68-13.83,25.79-27.46,33.13-40.88c1.78-3.05,3.01-4.77,3.58-5.4
		c0.56,0.11,1.04,1.94,1.41,5.51c5.94,43.12,24.57,64.68,55.83,64.57c30.69,0.11,54.51-23.5,71.35-70.69c1.98-5.18,3.77-5.18,5.27,0
		c12.64,40.08,33.37,60.3,62.35,60.7l0,0.09c25.44,0.59,47.83-13.77,67.17-43.08c22.86-34.76,35.05-82.96,36.48-144.62
		C4794.27,1116.74,4791.77,1050.77,4786.26,940.05z M3885.8,826.23c0.02-0.9,1.55-2.75,5.72-4.97c5.27-2.75,8.23-3.35,9.81-3.35
		c0.06,0,0.12,0,0.17,0c1.67,0.05,6.11,0.18,7.55,9.86c0.37,3.1,0.51,5.41,0.44,7.5c-0.09,3.13-0.55,6.36-1.38,9.64
		C3887.3,833.45,3885.76,827.75,3885.8,826.23z"/>
	<path d="M3713.2,1261.11c18.62-14.19,46.06-29.19,82.14-45.02c24.94-11.1,44.33-18.98,58.26-23.65
		c3.52,12.65,6.9,19.01,10.32,18.99c4.49,0.18,6.28-8.41,5.54-25.68c30.47-9.01,56.41-16.5,77.83-22.54
		c5.84-13.64,10.81-28.28,14.89-43.92c0.24-11.86-12.76-27.13-39.09-45.62c-24.81-18.02-43.95-27.21-57.51-27.56
		c-17.25-0.25-30.31,5.69-39.18,17.92c-7.66,10.09-11.68,22.42-11.97,36.97c-0.18,9.16,1.19,16.83,4.12,23.18
		c6.38,13.43,11.23,22.87,14.53,28.51c-47.39,14.97-97,42.2-148.93,81.71c-17.06,12.51-38.94,32.93-65.66,61.34
		c-27.83,29.92-47.45,49.48-58.86,58.6c-21.55,17.28-41.31,25.69-59.28,25.34c-13.12-0.26-23.09-5.04-30-14.44
		c-6.83-9.3-10.18-21.32-9.89-36.06c0.39-19.5,7.02-45.79,19.9-78.79c12.88-33,19.29-52.46,19.4-58.21
		c0.03-1.44-0.32-2.16-1.03-2.27c-1.8,0.05-4.28,2.79-7.44,8.3c-29.49,54.96-44.58,99.78-45.27,134.63
		c-0.5,25.16,6.18,46.41,20.04,63.76c13.86,17.35,30.13,26.12,48.82,26.49c17.25,0.34,34.93-7.31,53.13-23.12
		c5.3-4.39,24.84-24.4,58.44-60.14C3655.81,1308.96,3684.73,1282.66,3713.2,1261.11z M3838.64,1099.49
		c8.29-1.27,20.99,1.94,38.19,9.57c17.28,7.71,25.79,13.72,25.7,18.13c-7.17,3.63-23.55,9.33-49.14,17
		c-9.32-19.24-15.34-33.02-18.23-41.43C3834.47,1101.29,3835.65,1100.24,3838.64,1099.49z"/>
	<path d="M2502.35,1080.28c-5.2-26.32-15.29-50.57-30.38-72.73c-17.27-25.49-35.79-38.29-55.66-38.39
		c-17.17,0.1-33.71,9.68-49.73,28.61c-17.17,20.5-25.8,44.11-25.8,70.85c0,34.75,25.39,52.13,76.06,52.02
		c41.31,0.1,63.47,8.74,66.48,26.01c-3.85,10.92-20.5,29.76-49.94,56.5c-32.88,29.55-66.38,54.41-100.51,74.6
		c-41.83,25.18-77.51,37.66-106.96,37.66c-30.79,0-54.42-7.98-70.94-24.05c10.08-11.05,20.16-22.11,30.24-33.2
		c48.99-49.59,92.52-74.42,130.41-74.51c21.08,0.09,36.7,9.47,46.77,28.08c2.22,4.1,3.67,6.06,4.52,5.97
		c0.77,0.09,2.05-1.88,3.76-5.89c4.86-10.84,7.25-23.47,7.25-37.89c0-11.52-5.04-21.68-15.19-30.38
		c-10.16-8.71-22.36-13.06-36.61-13.14c-49.42,0.09-105.4,34.31-168.05,102.67c-8.63,9.42-16.44,17.93-23.45,25.57
		c-3.51-10.37-5.27-21.82-5.27-34.38c0-20.07,4.73-48.47,14.2-85.21c6.3-2.75,12.87-5.54,19.71-8.38
		c39.54-16.55,73.54-28.71,101.98-36.48c2.31-0.6,5.91-7.11,10.82-19.54c4.9-12.43,7.25-21.93,7.05-28.52
		c-0.13-3.95-1.23-6.16-3.31-6.63c-127.83-28.66-229.45-41.8-304.85-39.41c-10.59,0.34-18.96,1.13-25.13,2.38
		c-40.57,8.68-60.28,31.07-59.13,67.18c0.38,11.86,3.75,24.56,10.13,38.07c4.71,10.14,16.16,20.6,34.34,31.36
		c23.97,14.28,40.76,25.89,50.35,34.82c-15.67,11.58-35.24,21.83-58.74,30.76c-24.78,9.23-46.6,14.14-65.45,14.74
		c-30.63,0.97-56.48-11.27-77.57-36.73c-1.96-2.31-10.92-17.07-26.87-44.27c-10.21-17.09-19.68-25.5-28.39-25.22
		c-15.5,0.49-31.39,10.12-47.65,28.85c0.06-0.15,0.12-0.29,0.18-0.45c14.85-36.71,22.17-79.94,22.17-129.57
		c0-10.11-2.11-47.58-6.49-112.43c80.42-31.36,136.46-66.76,166.95-105.58c8.95,6,14.94,11.26,17.83,15.66l2.45,3.73l2.66-3.59
		c10.96-14.77,16.67-25.67,17.47-33.32l0.11-1.11l-0.61-0.93c-3.49-5.3-10.27-11.11-20.67-17.73c5.6-15.89,8.62-30.52,9.01-43.52
		c0.29-9.94-1.1-17.35-4.27-22.64c-3.39-5.66-8.66-8.63-15.66-8.84c-13.3-0.28-26.47,6.5-39.24,20.47
		c-12.69,13.81-19.34,27.61-19.73,41.02c-0.41,14.08,9.98,27.23,31.74,40.13c-22.05,20.68-55.18,42.58-98.55,65.12
		c-19.61,10.25-36.65,19.18-51.14,26.82c-5.06-74.94-13.15-191.96-13.15-198.21c0-4.68,1.02-6.1,2.95-4.07
		c18.92,20.85,28.37,26.44,28.37,16.78c0-2.85-0.81-7.32-2.64-13.42c-2.34-7.93-10.17-28.88-23.49-62.85
		c-12.92-32.44-21.15-52.38-24.61-59.7c-1.63-3.56-3.15-5.39-4.47-5.49c-1.02,0.1-2.34,1.83-3.86,5.09
		c-11.59,26.85-17.39,44.65-17.39,53.19c6.71,13.63,9.97,30.51,9.97,50.44c0,18.53,8.04,142.12,14.31,236.29
		c-13.87,7.43-22.37,12.11-25.37,13.99c-10.06,6.27-11.93,8.62-11.99,11l-0.03,1.29l0.89,0.93c1.35,1.43,2.74,1.76,3.66,1.78
		c0.07,0,0.15,0,0.24,0c1.58,0,4.65-0.44,13.46-3.21c6.94-2.26,13.74-4.55,20.4-6.86c0.11,1.64,0.22,3.26,0.33,4.87
		c6.51,95.8,9.66,149.09,9.66,159.87c0,24.71-1.02,44.65-3.15,59.8c-1.38,10.89-1.84,18.25-1.46,22.33
		c-12.91,18.76-23.97,41.5-33.17,68.24c-7.32,22.14-14.75,44.4-22.29,66.81c-8.37,18.73-19.62,28.33-33.75,28.78
		c-16.25,0.52-29.69-14.1-40.3-43.85c-8.52-23.21-13.17-47.08-13.94-71.59c-0.19-6.06-0.21-13.85-0.03-23.35
		c0.01-0.34,0.03-0.66,0.04-1c15.32,10.23,33.11,15.35,53.37,15.35c32.88,0,55.96-16.98,69.25-51.12
		c8.06-20.03,12.1-43.52,12.1-70.46c0-26.94-10.37-69.88-31.04-128.83c-9.21-26.25-15.83-46.86-19.97-61.83
		c0.69-1.61,1.61-2.42,2.76-2.42c11.92,7.6,20.2,11.41,24.82,11.41c2.3,0,3.45-1.27,3.45-3.8c0-3.45-2.54-9.33-7.6-17.61
		c-12.42-20.04-27.68-42.72-45.88-68.04c-4.08-5.53-6.96-8.3-8.58-8.3c-1.84,0-3.91,2.77-6.22,8.3
		c-6.9,19.16-11.97,34.01-15.19,44.55c4.61,6.22,7.71,12.6,9.33,19c0.69,2.77,1.84,10.18,3.45,22.1
		c4.14,30.92,12.1,64.07,23.78,99.47c5.75,17.27,15.53,39.38,29.3,66.31c10.82,21.24,16.23,35.06,16.23,41.45
		c-8.06,18.64-24.92,27.97-50.71,27.97c-30.8,0-53.72-12.66-68.73-38.17c-15.09-25.44-26.6-67.76-34.66-126.93
		c-8.52-63.32-20.14-110.3-34.82-140.93c-3.68-7.83-6.34-11.75-7.94-11.75c-1.39,0-3.23,3.01-5.53,8.99
		c-10.29,27.36-15.47,48.99-15.49,64.87c0.18,0.02,2.66,6.69,6.91,20.08c5.53,16.36,9.84,33.63,13.07,51.81
		c4.6,25.79,6.9,52.51,6.9,80.14c0,28.78-7.83,52.95-23.42,72.52c-19.81,24.88-49.46,37.31-88.95,37.31
		c-21.87,0-38.9-8.3-51.22-24.87c-12.26-16.58-18.42-39.6-18.42-69.07c0-13.59,3.68-40.13,11.05-79.62
		c7.31-39.48,10.99-65.68,10.99-78.58c0-15.65-3.68-23.48-10.99-23.48c-8.99,0-19.57,9.43-31.71,28.31
		c-11.29,16.81-20.73,36.05-28.27,57.69c-6.69,18.88-14.74,48.69-24.18,89.45c-8.24,36.84-15.25,61.82-21.01,74.95
		c-9.21,21.01-20.78,31.43-34.82,31.43c-32.64,0-48.93-38.92-48.93-116.74c0-15.2,1.33-31.52,3.97-48.96
		c2.86,0.92,5.91,1.4,9.16,1.4c1,0,2.01-0.05,3.04-0.13l0.59-0.05c10.51-0.9,19.65-8.11,27.15-21.42
		c7.14-12.64,11.24-26.8,12.18-42.3c0.01-0.96,0-2-0.06-2.69c-0.08-0.93-0.19-2.09-1.06-3.51c-1.19-1.58-2.56-2.33-4.25-2.18
		c-1.09,0.09-2.11,0.57-2.9,1.36c-1.33,1.04-2.41,2.63-3.37,4.93c-7.42,14.21-15.04,22.41-22.83,24.44
		c-0.19,0.06-0.42,0.08-0.87,0.12c-2.37,0.19-5.13-1.22-8.24-4.3c-4.99-4.73-7.99-12.58-8.92-23.31c-0.69-8.1-0.13-17.44,1.68-27.77
		c4.49-26.73,16.47-62.56,35.64-106.63c3.2-8.06,3.71-10.39,3.57-12.08c-0.03-0.28-0.13-0.74-0.23-1.06
		c-0.24-0.89-0.78-1.67-1.55-2.21c-0.97-0.67-2.18-0.87-3.3-0.53c-2.23,0.65-4.66,2.75-10.52,11.58
		c-9.52,14.54-20.13,38.61-31.54,71.52c-13.33,37.74-19.74,66.59-19.05,85.76c0.06,1.65,0.19,3.21,0.33,4.87
		c1.15,13.47,4.64,24.47,10.38,32.68c1.58,2.27,3.34,4.24,5.24,5.92c-6.06,26.42-9.11,51.18-9.11,74.23
		c0,38.45,5.75,71.27,17.27,98.43c13.99,32.76,33.9,49.04,59.62,49.04c5.76,0,12.5-4.02,20.32-12.08
		c9.68-9.67,17.15-22.44,22.4-38.33c3.92-11.52,12.32-45.02,25.21-100.52c9.84-43.06,19.28-71.61,28.26-85.65
		c5.7-8.99,9.39-13.47,10.99-13.47c0.91,0,1.38,0.8,1.38,2.42c0,2.99-1.27,8.98-3.8,17.96c-9.15,33.38-13.76,69.41-13.76,108.09
		c0,29.25,4.49,54.69,13.41,76.34c16.12,38.46,44.27,57.68,84.51,57.68c36.49,0,66.49-16,89.97-48.01
		c19.05-26.47,30.68-58.02,34.84-94.62c9.37,36.37,20.2,63.66,32.35,81.85c5.11,7.67,10.7,14.37,16.74,20.11
		c-1.63,17.89-2.26,32.84-1.88,44.84c1.36,42.96,10.29,79.09,26.78,108.39c15.73,27.47,33.01,40.91,51.86,40.31
		c15.31-0.49,28.08-14.09,38.32-40.79c9.47-28.54,18.82-57.06,28.06-85.59c5.43-14.68,15.73-29.99,30.91-45.9
		c15.18-15.92,27.49-23.63,36.94-23.14c7.08,0.3,14.16,7.73,21.22,22.28c10.33,20.79,19.16,35.41,26.51,43.88
		c24.22,27.73,55.16,40.21,92.8,37.43c25.82-0.82,54.49-9.51,86.03-26.08c13.5-7.15,25.54-14.48,36.14-22
		c-10.57,28.39-15.87,52.85-15.87,73.39c0,23.9,7,44.04,20.82,60.6c13.23,15.87,28.59,23.73,46.17,23.73
		c21.08,0,43.44-12.2,67.08-36.7c7.88-8.59,15.75-17.19,23.62-25.79c3.29,6.7,7.13,13.03,11.55,18.99
		c19.56,26.32,47.03,39.43,82.51,39.43c42.03,0,93.54-24.24,154.51-72.73c36-28.51,68.46-58.99,97.49-91.56
		c21.64-24.55,32.46-57.95,32.46-100.09C2505.58,1104,2504.54,1092.14,2502.35,1080.28z M2411.11,1060.72
		c-24.66,0.1-37.04-5.83-37.04-17.9c0-10.2,9.36-15.29,28.09-15.4c7.7,0.1,16.44,4.16,26.22,12.28c8.12,7.39,14.36,15.09,18.52,23.2
		C2441.9,1061.55,2429.94,1060.82,2411.11,1060.72z M1841.32,727.33c0.02-0.89,1.53-2.72,5.65-4.91c5.21-2.71,8.13-3.31,9.7-3.31
		c0.06,0,0.11,0,0.17,0c1.65,0.05,6.03,0.18,7.46,9.74c0.37,3.06,0.5,5.35,0.44,7.41c-0.09,3.09-0.54,6.29-1.36,9.52
		C1842.8,734.46,1841.28,728.84,1841.32,727.33z M1969.9,1109.9c-17.16-11.06-34.31-22.26-51.47-33.59
		c-1.59-1.27-2.41-2.69-2.46-4.28c-0.12-3.69,3.64-7.43,11.28-11.24c7.63-3.8,15.19-5.82,22.69-6.06
		c41.83-1.33,85.73,1.11,131.67,7.3c34.03,5.52,68.07,11.04,102.11,16.55c-65.54,20.29-120.42,46.43-164.63,78.44
		C2009.54,1141.5,1993.14,1125.79,1969.9,1109.9z M2089.45,1307.51c-25.6,23.98-48.05,35.93-67.51,35.93
		c-12.46,0-22.11-4.52-29.1-13.66c-6.49-8.36-9.81-19.63-9.81-33.8c0-18.26,5.8-43.36,17.33-75.11c1.08-2.95,2.11-5.79,3.09-8.51
		c1.94-1.71,3.81-3.42,5.6-5.15c-1.84,15.37,6.55,31.46,25.18,48.28c16.78,15.56,30.2,23.19,40.27,22.87
		c1.55-0.05,2.7-0.35,3.46-0.9c9.35-6.9,13.79-17.72,13.32-32.48c-0.69-21.61-9.51-43.23-26.48-64.86
		c15.82-10.79,37.79-22.57,65.88-35.32c-11.92,37.1-17.96,73.55-17.96,109.34c0,9.18,0.63,17.95,1.85,26.34
		C2099.51,1296.82,2091.13,1305.83,2089.45,1307.51z"/>
	<path d="M1054.36,1250.4c17.77-20.17,26.66-47.6,26.66-82.21c0-9.83-0.85-19.57-2.65-29.31c-4.27-21.62-12.56-41.53-24.95-59.73
		c-14.19-20.94-29.4-31.45-45.72-31.53c-14.1,0.09-27.69,7.95-40.85,23.5c-14.1,16.83-21.19,36.23-21.19,58.19
		c0,28.54,20.85,42.81,62.47,42.73c33.92,0.09,52.13,7.18,54.6,21.36c-3.16,8.97-16.83,24.44-41.02,46.4
		c-27,24.27-54.52,44.69-82.55,61.27c-34.35,20.68-63.66,30.93-87.85,30.93c-29.67,0-51.23-9.04-64.77-27.22
		c13.94-11.83,25.87-23.59,35.71-35.28c20.39-23.85,30.5-70.19,30.5-139.19c3.27,1.38,7.44,2.23,13.19,2.24l0,0c0.05,0,0.1,0,0.14,0
		c0.29,0,0.56,0.01,0.85,0l0-0.03c12.58-0.29,24.93-6.06,33.98-18.66c5.37-7.1,12.74-21.3,22.21-42.6
		c6.92-14.93,13.11-22.94,18.57-24.03c2.09,3.19,3.1,9.92,3.1,20.12c0,13.47,1.27,20.12,3.73,20.03c4.01,0.09,7.46-7.83,10.29-23.76
		c2.28-11.83,3.37-21.39,3.37-28.58c0-10.74-1.82-20.67-5.64-29.68c-3.82-8.92-8.19-13.38-13.2-13.47
		c-4.55,0.09-10.47,7.28-17.93,21.67c-10.74,21.03-18.39,34.5-22.76,40.33c-10.83,14.57-22.77,21.81-35.33,21.72
		c-13.38,0.09-23.31-3.19-29.68-9.92c-2.46-2.37-6.28-9.1-11.47-20.39c-2.82-6.19-5.19-9.29-7.19-9.38
		c-1.64,0.09-3.19,2.37-4.55,6.83c-7.47,24.03-11.2,37.32-11.2,40.06c0,3.91,1.73,9.19,5.19,15.93
		c18.39,35.69,27.58,69.46,27.58,101.23c-3.73,8.19-18.94,23.21-45.52,44.88c-6.13,5.04-12.28,9.89-18.44,14.58
		c-0.02-0.75-0.04-1.5-0.04-2.26c0-19.4,5.38-48.28,16.15-86.65c1.45-5.55,2.14-9.66,2.14-12.22c0-1.28-0.34-2.14-1.11-2.65
		c-1.37,0.09-3.84,4.19-7.43,12.22c-13.83,34.5-21.56,68.32-23.11,101.47c-19.67,14.13-39.44,26.5-59.29,37.13
		c-38.33,20.66-70.37,30.95-96.22,30.95c-22.21,0-40.33-9.83-54.35-29.59c-11.93-16.66-17.93-34.14-17.93-52.62
		c0-14.71,2.79-34.25,8.32-58.57c7.9,2.03,16.91,3.06,27.05,3.1v0.01c0.15,0,0.3,0,0.45,0c0.08,0,0.16,0,0.23,0v0
		c27.17-0.05,50.43-2.95,69.68-8.8c23.35-6.88,47.97-19.65,73.87-38.34c25.31-18.08,42.76-35.48,52.39-52.19
		c9.25-16.12,13.81-36.22,13.81-60.4c0-26.53-16.27-52.98-48.85-79.31c-14.88-12-48.16-33.18-99.76-63.65
		c-42.17-24.77-69.35-45.12-81.54-61.05c7.08,0.99,13.17,1.48,18.28,1.48c9.79,0,14.69-1.77,14.69-5.31
		c0-3.94-6.09-8.76-18.23-14.46l-55.92-26.24c-1.93-0.83-2.86-1.91-2.86-2.94c0-0.79,0.59-1.77,1.67-2.66
		c38.23-31.3,110.09-71.11,215.46-119.52c104.34-47.77,170.68-71.7,198.94-71.7c17.65,0,26.5,3.38,26.5,10.08
		c0,1.17-0.3,2.35-0.88,3.54c-6.29,11.2-25.11,34.7-56.53,70.52c-3.72,4.13-9.23,13.07-16.46,26.84c-8.06,15-12.68,25.5-13.86,31.6
		c-1.47,7.56-2.21,12.53-2.21,14.88c0,1.08,0.2,1.62,0.45,1.62c0.98,0,3.43-4.13,7.37-12.38c5.89-12.19,17.15-28.02,33.86-47.52
		c10.57-12,21.09-23.89,31.5-35.68c27.82-34.8,41.77-63.94,41.77-87.34c0-10.21-1.96-17.44-5.9-21.66
		c-3.93-4.23-11.15-6.39-21.77-6.39c-35.73,0-109,25.01-219.89,74.9c-109.83,49.39-181.43,89.05-214.81,119.13
		c-5.01,4.48-9.05,11.95-12.15,22.38c-1.44-27.07-2.96-48.11-4.56-63.08c-6.29-58.53-17.02-112.56-29.55-136.98
		c-1.98-3.89-3.55-5.9-4.72-5.9c-1.18,0-2.75,2.35-4.72,7.07c-7.86,19.12-11.75,33.48-11.75,43.05
		c11.35,36.22,20.41,86.87,24.54,126.96c2.5,25.01,5.45,92.84,8.79,203.47c3.15,101.88,6.58,163.22,10.32,184
		c5.9,33.62,17.15,56.62,33.87,69c3.47,2.62,7.39,4.83,11.73,6.65c-8.78,29.63-13.21,58.87-13.21,87.74
		c0,25.67,5.46,48.52,16.2,68.37c15.48,28.86,39.51,43.24,72.1,43.24c35.5,0,78.11-16.02,127.63-48.07
		c11.45-7.43,22.1-14.83,31.99-22.2c3.54,11.19,8.66,21.35,15.4,30.45c16.06,21.62,38.62,32.39,67.76,32.39
		c34.52,0,76.82-19.91,126.9-59.73C1003.86,1302.19,1030.52,1277.15,1054.36,1250.4z M1003.43,1122.82
		c-20.25,0.09-30.42-4.79-30.42-14.7c0-8.37,7.69-12.56,23.07-12.65c6.32,0.09,13.5,3.42,21.53,10.08
		c6.67,6.07,11.79,12.39,15.21,19.06C1028.73,1123.51,1018.9,1122.91,1003.43,1122.82z M507.75,1080.03
		c-1.57-9.2-3.74-64.92-6.49-167.19c-0.7-25.74-1.43-49.42-2.19-71.09c3.32,1.58,5.22,2.69,5.68,3.26
		c18.43,25.8,43.44,50.37,75.05,73.73c13.9,10.47,43.24,29.73,88.02,57.79c36.66,23,64.43,42.92,83.25,59.57
		c6.49,5.89,9.73,10.32,9.73,13.26c0,2.21-1.37,4.97-4.13,8.26c-48,55.36-111.39,83.07-190.12,83.15
		c-14.35-0.04-24.9-2.15-31.72-6.49C521.46,1125.69,512.47,1107.6,507.75,1080.03z"/>
	<path d="M1419.66,882.87c0-0.02,0-0.04,0-0.06c0,0,0,0,0,0V882.87z"/>
	<path d="M469.87,1145.73c-1.53-2.3-2.96-3.48-4.29-3.48c-1.32,0-2.55,1.13-3.68,3.48c-7.31,15.33-10.98,30.64-10.98,45.97
		c0,2.71,0.72,5.16,2.14,7.36c17.12,27.23,25.7,44.89,25.7,53.01c-6.37,14.87-19.62,22.82-39.71,24.04l0.01-0.22
		c-16.22,0-29.4-2.81-39.44-8.59c-10.09-5.66-19.86-16.29-29.41-31.87c-6.71-12.62-13.39-25.29-20.12-38
		c-8.14-13.85-16.94-20.84-26.49-20.84c-12.69,0-26.75,8.84-42.1,26.35c-15.34,17.63-28.35,38.63-38.91,63.15
		c-12.03,29.88-23.84,59.71-35.51,89.49c-11.63,24.94-24.36,37.4-38.12,37.4c-34.27,0-51.38-42.55-51.38-127.71
		c0-17.93,1.42-39.74,4.25-65.39c0.31-3.48,0.53-6.54,0.53-8.84c0-4.64-0.71-7.1-2.13-7.1c-1.77,0-3.71,4.29-5.83,12.88
		c-7.08,24.06-10.57,56.24-10.57,96.59c0,33.46,5.97,65.65,18,96.65c13.39,35.05,29.81,52.57,49.26,52.57
		c13.05,0,25.44-10.02,37.06-30.04c7.43-13.08,16.14-34.22,26.22-63.45c10.04-29.16,17.03-47.25,20.92-54.24
		c21.89-38.77,42.71-58.23,62.48-58.23c6.37,0,12.74,5.77,19.06,17.16c7.07,13.95,14.15,27.58,21.23,41.08
		c11.28,20.07,25.38,32.94,42.36,38.62c7.49,2.36,16.25,3.87,33.09,3.97v0.11c20.79,0,37.7-11.65,50.78-34.94
		c8.93-15.94,13.43-38.77,13.43-68.65c0-20.39-2.55-37.54-7.66-51.5C486.59,1172.96,479.89,1160.69,469.87,1145.73z"/>
	<path d="M4893.7,705.5c-2.1-7.94-9.58-29.26-22.54-64.08c-12.15-33.25-20.05-53.64-23.51-61.18c-1.63-3.56-3.17-5.45-4.42-5.57
		c-1.04,0.09-2.42,1.85-4.01,5.16c-12.38,28.41-18.72,46.25-18.8,53.75c6.52,13.61,9.67,30.83,9.45,51.45
		c-0.19,18.12,4.23,213.14,13.15,363.53c9.03,150.49,13.33,236.14,13.11,256.87c-0.25,23.12-1.4,43.21-3.56,60.37
		c-1.59,12.69-1.99,20.81-1.2,24.67c0.58,3.76,2.46,3.26,5.54-1.71c2.12-3.42,4.78-9.01,8.2-16.89
		c16.24-38.15,24.52-82.54,25.06-133.15c0.17-16.35-3.73-90.34-11.81-221.96c-7.98-131.52-12.06-309.15-12.04-311.23
		c0.06-5.52,1.11-6.86,3.17-3.92c17.69,21.43,26.58,27.26,26.68,17.57C4896.19,716.25,4895.41,711.76,4893.7,705.5z"/>
	<path d="M1800.16,912.31c252.32-120,487.27-229.12,704.81-327.6c2.92-2.95,6.44-10.7,10.72-23.25c0.77-2.32,1.27-4.35,1.19-5.54
		c-0.05-0.78-0.39-1.46-0.82-1.72c-0.22-0.06-0.52-0.16-0.93-0.14c-1.34,0.09-3.63,0.88-6.94,2.37
		c-236.76,107.63-468.85,213.09-696.19,316.39C1806.13,887.11,1802.18,900.25,1800.16,912.31z"/>
	<path d="M722.04,939.31c273.65-130.15,528.46-248.49,764.39-355.29c3.17-3.2,6.98-11.6,11.62-25.21c0.84-2.52,1.38-4.72,1.29-6.01
		c-0.06-0.84-0.42-1.58-0.89-1.87c-0.24-0.06-0.56-0.18-1.01-0.15c-1.45,0.1-3.93,0.95-7.52,2.57
		c-256.77,116.72-508.49,231.1-755.05,343.14C728.53,911.98,724.24,926.24,722.04,939.31z"/>
	<path d="M4666.95,653.72c3.65-2.99,8.45-11.7,14.35-26.37c1.06-2.65,1.83-4.99,1.83-6.39c0-0.91-0.34-1.74-0.85-2.08
		c-0.23-0.09-0.57-0.23-1.06-0.23c-1.59,0-4.31,0.74-8.3,2.23c-175.5,65.43-345.35,128.72-509.63,190.08
		c-7.96,16.58-13.52,31.68-16.84,45.29c19.17-11.28,111.06-47.6,275.6-108.98C4583.35,686.97,4664.96,655.72,4666.95,653.72z"/>
	<path d="M3215.2,725.89c89.23-47.55,167.47-87.15,234.64-118.94c2.7-2.68,5.87-10.04,9.47-22.27c0.66-2.21,1.08-4.14,0.97-5.27
		c-0.07-0.73-0.41-1.37-0.83-1.61c-0.21-0.05-0.5-0.16-0.89-0.12c-1.26,0.12-3.4,0.95-6.49,2.45
		c-79.97,38.34-155.58,74.59-226.85,108.52C3220.43,702.3,3217.07,714.71,3215.2,725.89z"/>
	<path d="M2504.73,771.38c0.75-2.45,1.22-4.59,1.11-5.84c-0.07-0.81-0.44-1.52-0.91-1.79c-0.23-0.06-0.55-0.18-0.99-0.14
		c-1.4,0.13-3.78,1.03-7.21,2.68c-88.99,42.09-173.12,81.88-252.43,119.13c-5.41,15.1-9.21,28.86-11.36,41.26
		c99.32-52.26,186.39-95.75,261.15-130.65C2497.1,793.08,2500.67,784.93,2504.73,771.38z"/>
	<path d="M1243.21,578.16c0.75-2.45,1.22-4.59,1.11-5.84c-0.07-0.81-0.44-1.52-0.91-1.79c-0.23-0.06-0.55-0.18-0.99-0.14
		c-1.4,0.13-3.78,1.03-7.21,2.68c-88.99,42.09-173.12,81.88-252.43,119.13c-5.41,15.1-9.21,28.86-11.36,41.26
		c99.32-52.26,186.39-95.75,261.15-130.65C1235.58,599.86,1239.14,591.71,1243.21,578.16z"/>
	<path d="M1288,1237.52c-0.23-0.06-0.55-0.18-0.99-0.14c-1.4,0.13-3.78,1.03-7.21,2.68c-88.99,42.09-173.12,81.88-252.43,119.13
		c-5.41,15.1-9.21,28.86-11.36,41.26c99.32-52.26,186.39-95.75,261.15-130.65c3.01-2.96,6.58-11.11,10.65-24.66
		c0.75-2.45,1.22-4.59,1.11-5.84C1288.83,1238.5,1288.46,1237.79,1288,1237.52z"/>
	<path d="M1059.48,852.93c-0.23-0.06-0.55-0.18-0.99-0.14c-1.4,0.13-3.78,1.03-7.21,2.68c-88.99,42.09-173.12,81.88-252.43,119.13
		c-5.41,15.1-9.21,28.86-11.36,41.26c99.32-52.26,186.39-95.75,261.15-130.65c3.01-2.96,6.58-11.11,10.65-24.66
		c0.75-2.45,1.22-4.59,1.11-5.84C1060.31,853.91,1059.94,853.2,1059.48,852.93z"/>
	<path d="M775.02,546.58c0.75-2.45,1.22-4.59,1.11-5.84c-0.07-0.81-0.44-1.52-0.91-1.79c-0.23-0.06-0.55-0.18-0.99-0.14
		c-1.4,0.13-3.78,1.03-7.21,2.68c-88.99,42.09-173.12,81.88-252.43,119.13c-5.41,15.1-9.21,28.86-11.36,41.26
		c99.32-52.26,186.39-95.75,261.15-130.65C767.38,568.27,770.95,560.13,775.02,546.58z"/>
	<path d="M2072.33,892.22c25.71-15.55,99.5-50.61,221.37-105.16c116.85-52.11,175.65-78.53,176.47-79.23
		c2.46-2.1,6.07-10.57,10.86-25.38c1-3.24,1.56-5.73,1.48-6.94c-0.02-0.37-0.13-0.79-0.28-0.92c-0.13,0.01-0.43-0.12-0.8-0.09
		c-1.36,0.09-4.1,1.07-8.1,2.85c-65.96,29.27-132.06,58.48-198.38,87.62c-128.84,57.3-197.77,89.3-206.85,95.96
		c-10.18,7.3-19.49,19.16-28.04,35.6c-8.58,16.43-12.53,29.66-11.86,39.71c1.19,17.8,19.38,28.85,54.49,33.13
		c2.26,0.37,4.35,0.43,5.71,0.34c1.95-0.13,3.35-0.72,3.71-1.61c0.76-1.64,0.83-6.9,0.24-15.79c-0.69-10.34-2.35-15.84-4.98-16.54
		c-15.58-4.17-26.91-7.73-33.95-10.71c-7.12-3-10.77-5.78-10.95-8.37C2042.2,912.69,2052.19,904.51,2072.33,892.22z"/>
	<path d="M3377.36,1270.48c-24.84-17.03-38.93-25.57-42.21-25.57c-2.3,0-4.43,1.97-6.39,5.92l-24.99,51.46
		c-6.56-6.56-20.32-16.89-41.22-30.98c-20.98-14.1-32.86-21.14-35.81-21.14c-2.29,0-4.42,1.97-6.39,5.92l-31.47,64.49
		c-0.65,1.47-0.9,2.71-0.9,3.69c0,0.99,0.33,1.72,0.9,2.2c26.22,16.47,51.55,34.01,76.13,52.7c0.9,0.73,2.05,1.15,2.87,1.15
		c1.8,0,3.77-1.66,5.41-4.59c8.85-14.43,17.86-32.03,27.04-52.78c27.12,17.7,51.55,34.59,73.09,50.64c0.82,0.67,1.97,0.9,2.79,0.9
		c1.8,0,3.86-1.47,5.58-4.34c21.88-35.31,32.85-58.59,32.85-69.73C3414.64,1297.44,3402.18,1287.54,3377.36,1270.48z"/>
	<path d="M1839.92,928.29c-2.07,0-3.99,1.78-5.76,5.33l-22.54,46.4c-5.91-5.92-18.32-15.23-37.17-27.94
		c-18.91-12.71-29.63-19.07-32.29-19.07c-2.07,0-3.99,1.78-5.76,5.33l-28.37,58.15c-0.59,1.32-0.81,2.44-0.81,3.33
		c0,0.89,0.29,1.55,0.81,1.99c23.64,14.85,46.48,30.66,68.64,47.51c0.81,0.66,1.85,1.04,2.59,1.04c1.63,0,3.4-1.5,4.88-4.14
		c7.98-13.01,16.11-28.88,24.38-47.59c24.46,15.96,46.48,31.19,65.91,45.66c0.74,0.61,1.78,0.81,2.52,0.81
		c1.63,0,3.48-1.32,5.03-3.91c19.73-31.83,29.62-52.83,29.62-62.87c0-2.67-11.24-11.59-33.61-26.97
		C1855.58,935.99,1842.87,928.29,1839.92,928.29z"/>
	<path d="M343.89,1160.43c0.8,0.65,1.81,1.02,2.54,1.02c1.6,0,3.34-1.47,4.79-4.07c7.83-12.77,15.81-28.35,23.93-46.71
		c24.01,15.67,45.62,30.62,64.69,44.82c0.72,0.59,1.75,0.8,2.47,0.8c1.6,0,3.42-1.3,4.94-3.84c19.37-31.25,29.08-51.86,29.08-61.72
		c0-2.62-11.03-11.38-32.99-26.48c-21.98-15.08-34.46-22.63-37.36-22.63c-2.03,0-3.92,1.75-5.66,5.24l-22.12,45.54
		c-5.8-5.81-17.99-14.95-36.48-27.42c-18.57-12.48-29.08-18.71-31.69-18.71c-2.03,0-3.92,1.75-5.66,5.24l-27.85,57.08
		c-0.58,1.3-0.8,2.39-0.8,3.27s0.29,1.52,0.8,1.95C299.72,1128.37,322.13,1143.89,343.89,1160.43z"/>
	<path d="M907.22,1174.17c-1.83,0-3.53,1.57-5.09,4.7l-25.01,51.32c-0.52,1.19-0.78,2.16-0.78,2.94c0,0.79,0.33,1.37,0.78,1.77
		c20.83,13.05,41,27.03,60.59,41.92c0.72,0.59,1.63,0.9,2.29,0.9c1.44,0,3.07-1.3,4.37-3.66c17.43-28.2,26.18-46.74,26.18-55.63
		c0-2.34-9.92-10.25-29.71-23.89C921,1181.02,909.83,1174.17,907.22,1174.17z"/>
	<path d="M2559.9,803.02c-10.8,6.73-12.8,9.25-12.87,11.81l-0.03,1.38l0.95,1c1.45,1.54,2.94,1.89,3.93,1.91c0.08,0,0.17,0,0.26,0
		c1.69,0,4.99-0.47,14.45-3.44c118.21-38.55,198.22-83.69,237.92-134.22c9.6,6.43,16.03,12.08,19.13,16.8l2.63,4l2.85-3.85
		c11.75-15.84,17.89-27.54,18.74-35.75l0.12-1.19l-0.65-1c-3.75-5.69-11.01-11.92-22.17-19.02c6-17.05,9.25-32.74,9.67-46.69
		c0.31-10.67-1.19-18.61-4.58-24.29c-3.64-6.07-9.29-9.26-16.8-9.48c-14.27-0.3-28.4,6.97-42.1,21.96
		c-13.62,14.82-20.75,29.62-21.17,44c-0.44,15.11,10.71,29.22,34.05,43.06c-23.66,22.19-59.19,45.68-105.73,69.86
		C2607.35,777.04,2567.45,798.29,2559.9,803.02z M2780.57,609.88c0.03-0.95,1.64-2.91,6.06-5.27c5.58-2.91,8.72-3.55,10.4-3.55
		c0.06,0,0.12,0,0.18,0c1.77,0.05,6.47,0.19,8.01,10.45c0.39,3.28,0.54,5.74,0.47,7.95c-0.1,3.32-0.58,6.74-1.46,10.22
		C2782.15,617.54,2780.51,611.5,2780.57,609.88z"/>
	<path d="M445.54,681.36c-3.66-5.55-9.08-8.32-16.14-8.23c-13.4,0.28-26.37,7.67-38.63,22.27c-12.19,14.44-18.29,28.62-18.12,42.12
		c0.18,14.19,11.21,26.99,33.65,39.05c-21.31,21.76-53.73,45.2-96.43,69.74c-65.27,37.7-101.86,59.22-108.76,63.95
		c-9.86,6.74-11.64,9.19-11.61,11.59l0.02,1.3l0.93,0.9c1.42,1.39,2.84,1.65,3.76,1.64c0.07,0,0.16,0,0.25-0.01
		c1.59-0.07,4.67-0.64,13.42-3.8c109.37-40.85,182.66-86.38,217.9-135.37c9.26,5.66,15.52,10.69,18.62,15l2.63,3.65l2.52-3.72
		c10.4-15.33,15.69-26.55,16.17-34.28l0.07-1.12l-0.65-0.91c-3.74-5.19-10.81-10.75-21.56-16.97c4.96-16.24,7.38-31.09,7.22-44.19
		C450.68,693.94,448.95,686.55,445.54,681.36z M423.49,737.95c-21.2-10.52-22.97-16.12-22.99-17.64c-0.01-0.9,1.42-2.8,5.48-5.19
		c5.12-2.95,8.04-3.68,9.62-3.74c0.06,0,0.11,0,0.17,0c1.66-0.02,6.08-0.08,7.93,9.49c0.5,3.07,0.73,5.36,0.76,7.44
		C424.5,731.43,424.18,734.66,423.49,737.95z"/>
	<path d="M4555.08,896.18c10.84,0,19.63-8.12,26.54-24.37c5.12-12.63,7.68-24.81,7.68-36.54c0-6.33-2.41-15.42-7.22-27.53
		c-7.83-20.08-11.82-30.45-12.11-31.13c-1.81-5.43-3.16-12.26-4.06-20.75c-0.6-5.95-1.5-9.03-2.71-9.03
		c-1.19,0.37-3.31,2.93-6.31,7.66c-4.5,7.01-6.78,14.9-6.78,23.91c0,15.73,8.43,38.29,25.2,67.68c-2.1,8.43-7.3,12.63-15.71,12.63
		c-19.56,0-29.26-12.63-29.26-37.88c0-8.66-2.18-22.19-6.54-40.61c-4.35-18.27-7.89-27.53-10.61-27.53c-1.5,0-3.75,3.31-6.76,9.7
		c-3,6.54-4.5,11.28-4.5,14.23c0,3.37,1.64,11.95,4.95,25.72c3.31,13.9,4.97,23.68,4.97,29.32c0,9.93-3.52,18.57-10.61,25.95
		c-6.99,7.37-14.57,11.05-22.69,11.05c-6.31,0-11.59-4.66-15.8-13.99c-3.6-8.12-5.41-16.46-5.41-25.25c0-4.14,0.67-9.11,2.04-14.9
		c1.35-5.64,2.02-12.7,2.02-21.19c0-16.25-2.1-24.37-6.31-24.37c-3.23,0-8.05,3.54-14.36,10.38c-6.93,7.89-10.38,15.8-10.38,23.91
		c0,5.2,2.02,8.35,6.08,9.49c4.06,1.27,6.1,3.37,6.1,6.31v37c0,15.63,3.45,28.26,10.38,37.88c5.93,8.12,12.99,12.18,21.12,12.18
		c21.58,0,36.48-15.03,44.6-45.12C4525.84,884.44,4537.95,896.18,4555.08,896.18z"/>
	<path d="M1482.72,711.26c-3.78-8.54-5.68-17.29-5.68-26.54c0-4.35,0.71-9.57,2.14-15.66c1.42-5.93,2.12-13.35,2.12-22.27
		c0-17.07-2.2-25.61-6.63-25.61c-3.4,0-8.45,3.72-15.09,10.9c-7.28,8.29-10.9,16.61-10.9,25.12c0,5.46,2.12,8.78,6.39,9.97
		c4.27,1.33,6.41,3.54,6.41,6.63v38.88c0,16.43,3.62,29.69,10.9,39.81c6.23,8.54,13.65,12.8,22.19,12.8
		c22.67,0,38.33-15.8,46.87-47.41c7.59,24.66,20.31,37,38.31,37c11.39,0,20.63-8.54,27.89-25.61c5.38-13.27,8.07-26.07,8.07-38.39
		c0-6.65-2.53-16.2-7.59-28.92c-8.23-21.1-12.42-32-12.72-32.71c-1.9-5.7-3.32-12.89-4.27-21.81c-0.63-6.25-1.58-9.49-2.85-9.49
		c-1.25,0.38-3.48,3.07-6.63,8.05c-4.73,7.36-7.12,15.66-7.12,25.12c0,16.53,8.86,40.23,26.48,71.12
		c-2.2,8.86-7.67,13.27-16.51,13.27c-20.55,0-30.75-13.27-30.75-39.81c0-9.1-2.29-23.32-6.88-42.68
		c-4.57-19.2-8.29-28.92-11.15-28.92c-1.58,0-3.94,3.48-7.1,10.19c-3.16,6.88-4.73,11.85-4.73,14.95c0,3.54,1.72,12.56,5.2,27.02
		c3.48,14.61,5.22,24.88,5.22,30.81c0,10.44-3.7,19.52-11.15,27.27c-7.34,7.75-15.31,11.61-23.85,11.61
		C1492.69,725.96,1487.15,721.07,1482.72,711.26z"/>
	<path d="M3265.92,1021.88c-30.48,16.03-49.05,26.64-55.76,31.83c-5.79,4.55-9.04,7.26-9.69,8.12c0,0.17,0.27,0.22,0.65,0.22
		c1.52,0,6.06-0.98,13.26-2.81c52.3-13.86,83.1-24.04,92.41-30.54c14.45-10.39,29.71-26.73,45.69-49.05
		c14.29-19.86,21.44-32.64,21.44-38.32c0-13.8-29.95-20.79-89.82-20.79c-18.84,0-30.8,0.48-36,1.34
		c-14.24,2.38-24.09,8.12-29.5,17.23l-18.46,31.28c-2.38,4.12-3.57,6.83-3.57,8.12c0,1.41,3.08,2.06,9.09,2.06
		c1.46,0,3.3-0.05,5.14-0.11c19.71-0.97,29.61-1.45,29.83-1.45c51.87,0,77.85,3.46,77.85,10.39c0,0.86-0.44,1.73-1.3,2.59
		C3312.2,996.34,3295.1,1006.29,3265.92,1021.88z"/>
	<path d="M2051.33,622.35c1.67,0,3.77-0.06,5.87-0.13c22.47-1.11,33.77-1.66,34.02-1.66c59.16,0,88.79,3.95,88.79,11.85
		c0,0.98-0.51,1.98-1.49,2.96c-5.69,4.95-25.19,16.3-58.47,34.08c-34.76,18.29-55.94,30.38-63.59,36.31
		c-6.61,5.18-10.31,8.28-11.05,9.26c0,0.19,0.31,0.25,0.74,0.25c1.73,0,6.92-1.12,15.13-3.21c59.64-15.81,94.78-27.42,105.4-34.84
		c16.49-11.85,33.89-30.49,52.11-55.94c16.3-22.65,24.45-37.22,24.45-43.7c0-15.74-34.16-23.71-102.44-23.71
		c-21.49,0-35.13,0.55-41.06,1.53c-16.24,2.72-27.48,9.26-33.65,19.65l-21.05,35.67c-2.72,4.69-4.07,7.79-4.07,9.26
		C2040.95,621.61,2044.47,622.35,2051.33,622.35z"/>
	<path d="M4633.6,1342l-1.38-0.31c-2.05-0.33-4.1,0.88-10.75,8.89c-2.77,3.19-4.25,5.81-4.63,8.24c-0.08,0.5-0.08,0.97-0.05,2.04
		l0.14,1.4c0.35,3.62,0.66,6.85,0.8,8.32c-12.66-2.04-16.66-3.84-17.89-4.63c3.29-5.59,5.12-9.68,5.57-12.5
		c0.81-5.03-2.56-5.83-3.24-5.94c-3.03-0.49-6.26,1.34-10.17,5.73l-13.25,14.76c-7.69,6.79-16.71,7.2-30.23-0.06
		c-5.76-2.98-10.26-4.71-13.74-5.27c-14.77-2.37-30.54,0.64-46.91,8.97c-13.27,6.97-26.04,15.7-37.98,25.94
		c-17.77,15.18-30.95,25.76-40.02,32.19c-18.3,9.86-31.22,16.04-39.63,18.96c-14.79,6.1-14.89,6.74-15.16,8.43
		c-0.23,1.44,0.63,3.08,2.73,3.41c1.34,0.21,4.8,0.18,20.33-1.75c9.59-1.18,19.71-4.56,30.34-10.22
		c17.26-12.17,34.48-24.36,51.48-36.52c22.65-15.05,43.75-21.13,62.73-18.08c1.57,0.25,4.68,1.2,10.53,4.31
		c5.3,2.81,9.68,4.46,13.4,5.06c11.81,1.9,24.85-2.29,38.77-12.46c13.14,8.89,23.68,11.62,32.13,7.82
		c3.48-1.67,7.23-6.36,11.81-14.77c4.41-8.14,7.06-15.25,8.11-21.75c1.29-8.02,0.21-14.52-3.19-19.32L4633.6,1342z"/>
	<path d="M1163.41,886.76c-10,6.56-11.69,8.79-11.69,11.3c0,2.03,1.54,4.21,4.91,4.21c1.62,0,4.74-0.35,13.06-3.36
		c37.59-13.84,57.76-21.52,61.53-23.4c17.68-7.94,37.46-19.92,58.8-35.62c17.52-13.02,32.46-27.83,44.43-44.07
		c34.09,3.65,35.97,3.65,36.69,3.65c5.98,0,11.45-5.47,16.72-16.71c4.86-10.23,7.32-19.43,7.32-27.33c0-2.89-0.47-5.23-1.32-6.93
		c-9.26-22.24-28.17-41.36-56.27-56.87c-17.81-9.43-31.14-8.89-41.39,1.27c-4.23,4.29-6.38,10.22-6.38,17.65
		c0,4.2,0.75,9.13,2.31,15.05c-6.04,10.91-9.11,22.56-9.11,34.66c0,14.9,9.69,25.34,28.84,31.09
		c-16.3,14.74-38.74,30.59-66.83,47.17L1163.41,886.76z M1348.45,740.04c11,5.71,19.06,14.08,24.01,24.91
		c0.34,0.75,0.58,1.36,0.77,1.86c-15.55-2.13-23.71-3.32-27.85-3.96C1347.13,756.47,1348.16,748.83,1348.45,740.04z M1301.84,749.51
		c0-0.46,0.34-3.07,6.98-9.73c6.57-6.55,9.38-7.06,10.09-7.06c3.45,0,6.04,3.35,7.68,9.89c0.88,3.86,1.31,7.25,1.31,10.38
		c0,2.21-0.2,4.42-0.6,6.6C1303.12,755.98,1301.84,750.59,1301.84,749.51z"/>
	<path d="M180.58,1089.28c-10,6.56-11.69,8.79-11.69,11.3c0,2.03,1.54,4.21,4.91,4.21c1.62,0,4.74-0.35,13.06-3.36
		c37.59-13.84,57.76-21.52,61.53-23.4c17.68-7.94,37.46-19.92,58.8-35.62c17.52-13.02,32.46-27.83,44.43-44.07
		c34.09,3.65,35.97,3.65,36.69,3.65c5.98,0,11.45-5.47,16.72-16.71c4.86-10.23,7.32-19.43,7.32-27.33c0-2.89-0.47-5.23-1.32-6.93
		c-9.26-22.24-28.17-41.36-56.27-56.87c-17.81-9.43-31.14-8.89-41.39,1.27c-4.23,4.29-6.38,10.22-6.38,17.65
		c0,4.2,0.75,9.13,2.31,15.05c-6.04,10.91-9.11,22.56-9.11,34.66c0,14.9,9.69,25.34,28.84,31.09
		c-16.3,14.74-38.74,30.59-66.83,47.17L180.58,1089.28z M365.61,942.55c11,5.71,19.06,14.08,24.01,24.91
		c0.34,0.75,0.58,1.36,0.77,1.86c-15.55-2.13-23.71-3.32-27.85-3.96C364.29,958.98,365.32,951.35,365.61,942.55z M319.01,952.02
		c0-0.46,0.34-3.07,6.98-9.73c6.57-6.55,9.38-7.06,10.09-7.06c3.45,0,6.04,3.35,7.68,9.89c0.88,3.86,1.31,7.25,1.31,10.38
		c0,2.21-0.2,4.42-0.6,6.6C320.28,958.49,319.01,953.1,319.01,952.02z"/>
	<path d="M2973.88,848.94c-24.22-1.36-41.49-5.44-51.32-12.12l-3.54-2.4l0.81,4.2c1.88,9.86,7.16,18.9,15.68,26.89
		c10.44,9.73,23.79,15.11,39.66,16.01c3.03,0.17,6.23,0.26,9.59,0.26c28.86,0,69.84-6.28,122.08-18.72
		c3.45-0.95,7.3-5.69,12.13-14.93c4.57-8.76,7.14-17.47,7.62-25.9c0.28-5.15-0.33-9.82-1.85-13.91
		c-6.04-15.32-21.42-23.78-45.7-25.15c-4.17-0.24-14.67,0.66-32.89,2.83c-17.27,2.05-32.21,2.73-44.54,2.05
		c-17.32-0.98-22.9-3.35-24.52-5.16c-0.46-0.51-0.5-0.89-0.48-1.18c0.04-0.84,0.55-2.34,2.68-4.72
		c9.25-10.06,22.97-20.46,40.77-30.9c16.72-9.69,27.72-14.37,32.61-14.18c4.17,0.24,7.23,1.67,9.36,4.4
		c3.46,4.41,4.77,5.28,5.97,5.35c2.87,0.17,6.1-2.22,12.33-20.4c0.79-2.37,1.27-4.6,1.37-6.44c0.34-6.11-2.52-13.58-18.09-14.46
		c-12.46-0.76-27.72,5.28-46.89,18.27c-22.04,14.82-40.51,34.65-54.91,58.96c-5.07,8.63-7.79,15.88-8.12,21.54
		c-0.75,13.32,13.07,20.88,41.07,22.45c7.14,0.4,19.43-0.42,37.63-2.5c18.11-2.09,29.62-2.96,35.28-2.63
		c24.88,1.4,39.2,6.79,42.59,16.04c-8.83,1.95-29.67,5.09-62.02,9.37C3009.32,847.15,2984.31,849.52,2973.88,848.94z"/>
	<path d="M659.39,850.34c-24.22-1.36-41.49-5.44-51.32-12.12l-3.54-2.4l0.81,4.2c1.88,9.86,7.16,18.9,15.68,26.89
		c10.44,9.73,23.79,15.11,39.66,16.01c3.03,0.17,6.23,0.26,9.59,0.26c28.86,0,69.84-6.28,122.08-18.72
		c3.45-0.95,7.3-5.69,12.13-14.93c4.58-8.76,7.14-17.47,7.62-25.9c0.28-5.15-0.33-9.82-1.85-13.91
		c-6.04-15.32-21.41-23.78-45.7-25.15c-4.17-0.24-14.67,0.66-32.89,2.83c-17.27,2.05-32.21,2.73-44.54,2.05
		c-17.32-0.98-22.9-3.35-24.52-5.16c-0.46-0.51-0.5-0.89-0.48-1.18c0.04-0.84,0.55-2.34,2.68-4.72
		c9.25-10.06,22.97-20.46,40.77-30.9c16.72-9.69,27.72-14.37,32.61-14.18c4.17,0.24,7.23,1.67,9.36,4.4
		c3.46,4.41,4.77,5.28,5.97,5.35c2.87,0.17,6.1-2.22,12.33-20.4c0.79-2.37,1.27-4.6,1.37-6.44c0.34-6.11-2.52-13.58-18.09-14.46
		c-12.46-0.76-27.72,5.28-46.89,18.27c-22.04,14.82-40.51,34.65-54.91,58.96c-5.07,8.63-7.79,15.88-8.12,21.54
		c-0.75,13.32,13.07,20.88,41.07,22.45c7.14,0.4,19.43-0.42,37.63-2.5c18.11-2.09,29.62-2.96,35.28-2.63
		c24.88,1.4,39.2,6.79,42.59,16.04c-8.83,1.95-29.67,5.09-62.02,9.37C694.82,848.54,669.82,850.91,659.39,850.34z"/>
	<path d="M4221.23,632.11c7.17,6.6,13.12,9.81,18.2,9.81c1.96,0,7.91,0,9.81-4.68c0,0,0.18-0.12,0.67-0.19
		c1.59,1.69,6.39,9.34,17.79,43.71c12.32,36.68,14.91,50.54,14.91,55.71c0,7.46,2.25,11.25,6.68,11.25c3.75,0,7.17-3.1,11.17-10.16
		c4.35-8.35,8.35-22.43,11.91-41.87c14.96-82.3,24.01-87.62,25.66-87.85c2.96,0,6.07,2.05,9.27,6.09c6.04,7.63,8.37,9.03,10.77,9.03
		c6.27,0,9.28-7.16,10.98-12.5c1.79-5.33,2.66-9.64,2.66-13.17c0-4.86-2.52-10.67-7.73-17.79c-6.14-8.26-12.62-12.45-19.28-12.45
		c-12.33,0-23.02,11.24-32.86,34.93c-7.83,31.71-13.58,58.51-17.13,79.9c-4.72-22.55-11.99-43.4-21.66-62.13
		c-13.21-25.53-26.49-37.95-40.58-37.95c-2.99,0-5.53,2.14-13.52,15.44c-7.98,13.43-8.63,16.16-8.63,17.96
		C4210.31,619.98,4213.89,625.52,4221.23,632.11z"/>
	<path d="M3516.21,662.48c7.17,6.6,13.12,9.81,18.2,9.81c1.96,0,7.91,0,9.81-4.68c0,0,0.18-0.12,0.67-0.19
		c1.59,1.69,6.39,9.34,17.79,43.71c12.32,36.68,14.91,50.54,14.91,55.71c0,7.46,2.25,11.25,6.68,11.25c3.75,0,7.17-3.1,11.17-10.16
		c4.35-8.35,8.35-22.43,11.91-41.87c14.96-82.3,24.01-87.62,25.66-87.85c2.96,0,6.07,2.05,9.27,6.09c6.04,7.63,8.37,9.03,10.77,9.03
		c6.27,0,9.28-7.16,10.98-12.5c1.79-5.33,2.66-9.64,2.66-13.17c0-4.86-2.52-10.67-7.73-17.79c-6.14-8.26-12.62-12.45-19.28-12.45
		c-12.33,0-23.02,11.24-32.86,34.93c-7.83,31.71-13.58,58.51-17.13,79.9c-4.72-22.55-11.99-43.4-21.66-62.13
		c-13.21-25.53-26.49-37.95-40.58-37.95c-2.99,0-5.53,2.14-13.52,15.44c-7.98,13.43-8.63,16.16-8.63,17.96
		C3505.29,650.35,3508.87,655.89,3516.21,662.48z"/>
	<path d="M1718.34,613.95c7.17,6.6,13.12,9.81,18.2,9.81c1.96,0,7.91,0,9.81-4.68c0,0,0.18-0.12,0.67-0.19
		c1.59,1.69,6.39,9.34,17.79,43.71c12.32,36.68,14.91,50.54,14.91,55.71c0,7.46,2.25,11.25,6.68,11.25c3.75,0,7.17-3.1,11.17-10.16
		c4.35-8.35,8.35-22.43,11.91-41.87c14.96-82.3,24.01-87.62,25.66-87.85c2.96,0,6.07,2.05,9.27,6.09c6.04,7.63,8.37,9.03,10.77,9.03
		c6.27,0,9.28-7.16,10.98-12.5c1.79-5.33,2.66-9.64,2.66-13.17c0-4.86-2.53-10.67-7.73-17.79c-6.14-8.26-12.62-12.45-19.28-12.45
		c-12.33,0-23.02,11.24-32.86,34.93c-7.83,31.71-13.58,58.51-17.13,79.9c-4.72-22.55-11.99-43.4-21.66-62.13
		c-13.21-25.53-26.49-37.95-40.58-37.95c-2.99,0-5.53,2.14-13.52,15.44c-7.98,13.43-8.63,16.16-8.63,17.96
		C1707.42,601.82,1711,607.36,1718.34,613.95z"/>
	<path d="M135.4,622.31c7.17,6.6,13.12,9.81,18.2,9.81c1.96,0,7.91,0,9.81-4.68c0,0,0.18-0.12,0.67-0.19
		c1.59,1.69,6.39,9.34,17.79,43.71c12.32,36.68,14.91,50.54,14.91,55.71c0,7.46,2.25,11.25,6.68,11.25c3.75,0,7.17-3.1,11.17-10.16
		c4.35-8.35,8.35-22.43,11.91-41.87c14.96-82.3,24.01-87.62,25.66-87.85c2.96,0,6.07,2.05,9.27,6.09c6.04,7.63,8.37,9.03,10.77,9.03
		c6.27,0,9.28-7.16,10.98-12.5c1.79-5.33,2.66-9.64,2.66-13.17c0-4.86-2.53-10.67-7.73-17.79c-6.14-8.26-12.62-12.45-19.28-12.45
		c-12.33,0-23.02,11.24-32.86,34.93c-7.83,31.71-13.58,58.51-17.13,79.9c-4.72-22.55-11.99-43.4-21.66-62.13
		c-13.21-25.53-26.49-37.95-40.58-37.95c-2.99,0-5.53,2.14-13.52,15.44c-7.98,13.43-8.63,16.16-8.63,17.96
		C124.48,610.18,128.06,615.72,135.4,622.31z"/>
	<path d="M4500.51,932.41c-13.86,0-25.87,12.63-36.93,39.25c-8.8,35.64-15.26,65.76-19.25,89.79
		c-5.31-25.34-13.47-48.77-24.34-69.82c-14.85-28.69-29.77-42.64-45.6-42.64c-3.36,0-6.21,2.41-15.2,17.35
		c-8.96,15.1-9.7,18.16-9.7,20.19c0,5.36,4.03,11.59,12.28,18.99c8.06,7.42,14.75,11.03,20.46,11.03c2.2,0,8.89,0,11.02-5.26
		c0,0,0.2-0.14,0.76-0.22c1.78,1.9,7.18,10.5,19.99,49.13c13.85,41.22,16.75,56.8,16.75,62.61c0,8.39,2.52,12.64,7.5,12.64
		c4.21,0,8.06-3.48,12.56-11.42c4.89-9.38,9.39-25.21,13.38-47.06c16.81-92.49,26.98-98.47,28.83-98.73c3.32,0,6.82,2.3,10.42,6.85
		c6.79,8.58,9.4,10.14,12.11,10.14c7.04,0,10.43-8.05,12.34-14.04c2.01-5.99,2.99-10.84,2.99-14.79c0-5.46-2.84-11.99-8.69-19.99
		C4515.28,937.12,4508,932.41,4500.51,932.41z"/>
	<path d="M3380.12,741.59c3.32,0,6.82,2.41,10.42,7.16c6.79,8.97,9.4,10.61,12.11,10.61c7.04,0,10.43-8.41,12.34-14.69
		c2.01-6.27,2.99-11.33,2.99-15.47c0-5.71-2.84-12.54-8.69-20.9c-6.9-9.71-14.18-14.63-21.66-14.63
		c-13.86,0-25.87,13.21-36.93,41.05c-8.8,37.27-15.26,68.76-19.25,93.9c-5.31-26.5-13.47-51-24.34-73.02
		c-14.85-30.01-29.77-44.59-45.6-44.59c-3.36,0-6.21,2.52-15.2,18.14c-8.96,15.79-9.7,18.99-9.7,21.11
		c0,5.61,4.03,12.12,12.28,19.86c8.06,7.76,14.75,11.53,20.46,11.53c2.2,0,8.89,0,11.02-5.5c0,0,0.2-0.15,0.76-0.23
		c1.78,1.99,7.18,10.98,19.99,51.37c13.85,43.11,16.75,59.4,16.75,65.47c0,8.77,2.52,13.22,7.5,13.22c4.21,0,8.06-3.64,12.56-11.94
		c4.89-9.81,9.39-26.36,13.38-49.21C3368.1,748.12,3378.27,741.86,3380.12,741.59z"/>
	<path d="M4282.53,889.83c4.78-12.04,5.54-15.53,5.34-18.05c-0.04-0.42-0.2-1.1-0.34-1.58c-0.35-1.33-1.16-2.5-2.31-3.3
		c-1.44-0.99-3.25-1.29-4.94-0.79c-3.33,0.97-6.96,4.11-15.72,17.31c-14.22,21.73-30.08,57.7-47.13,106.89
		c-19.93,56.4-29.5,99.52-28.47,128.16c0.09,2.46,0.29,4.8,0.5,7.28c1.72,20.14,6.94,36.57,15.51,48.84
		c8.82,12.66,21.11,19.27,36.05,19.27c1.49,0,3.01-0.07,4.54-0.2l0.88-0.08c15.71-1.35,29.36-12.12,40.57-32.01
		c10.67-18.89,16.79-40.05,18.2-63.22c0.01-1.43,0-2.99-0.08-4.02c-0.12-1.39-0.28-3.13-1.58-5.25c-1.78-2.36-3.83-3.49-6.35-3.25
		c-1.63,0.13-3.15,0.86-4.33,2.04c-1.98,1.56-3.6,3.93-5.04,7.37c-11.08,21.23-22.48,33.49-34.12,36.52
		c-0.28,0.09-0.63,0.12-1.3,0.18c-3.55,0.28-7.67-1.83-12.31-6.43c-7.46-7.08-11.94-18.79-13.33-34.83
		c-1.04-12.11-0.19-26.06,2.52-41.49C4235.98,1009.24,4253.88,955.69,4282.53,889.83z"/>
	<path d="M3152.21,1323.94c-1.47-1.87-3.18-2.76-5.27-2.57c-1.35,0.1-2.62,0.68-3.59,1.61c-1.64,1.23-2.99,3.11-4.18,5.82
		c-9.19,16.77-18.64,26.45-28.3,28.85c-0.23,0.07-0.53,0.1-1.08,0.14c-2.94,0.22-6.37-1.45-10.22-5.08
		c-6.19-5.59-9.91-14.84-11.06-27.51c-0.86-9.57-0.16-20.58,2.09-32.77c5.57-31.55,20.42-73.85,44.19-125.87
		c3.96-9.51,4.6-12.27,4.43-14.25c-0.03-0.33-0.16-0.87-0.28-1.25c-0.29-1.05-0.97-1.98-1.92-2.61c-1.2-0.79-2.7-1.02-4.1-0.63
		c-2.76,0.77-5.78,3.25-13.04,13.67c-11.8,17.16-24.95,45.58-39.09,84.43c-16.53,44.55-24.47,78.61-23.62,101.23
		c0.08,1.94,0.24,3.79,0.41,5.75c1.43,15.9,5.76,28.89,12.86,38.58c7.32,10,17.52,15.22,29.91,15.22c1.24,0,2.5-0.05,3.77-0.16
		l0.73-0.06c13.03-1.06,24.36-9.57,33.65-25.29c8.85-14.92,13.93-31.63,15.09-49.93c0.01-1.13,0-2.36-0.07-3.17
		C3153.43,1326.99,3153.29,1325.62,3152.21,1323.94z"/>
	<path d="M4638.94,1083.6c0.06,1.66,0.19,3.23,0.34,4.9c1.16,13.57,4.68,24.64,10.45,32.91c5.94,8.53,14.23,12.99,24.29,12.99
		c1,0,2.03-0.05,3.06-0.13l0.59-0.05c10.58-0.91,19.78-8.16,27.33-21.57c7.19-12.73,11.31-26.98,12.26-42.59
		c0-0.97,0-2.01-0.06-2.71c-0.08-0.94-0.19-2.11-1.06-3.54c-1.2-1.59-2.58-2.35-4.28-2.19c-1.1,0.09-2.12,0.58-2.92,1.37
		c-1.33,1.05-2.42,2.65-3.4,4.96c-7.47,14.3-15.14,22.56-22.99,24.61c-0.19,0.06-0.43,0.08-0.88,0.12c-2.39,0.19-5.17-1.23-8.3-4.33
		c-5.03-4.77-8.05-12.66-8.98-23.47c-0.7-8.16-0.13-17.56,1.7-27.96c4.52-26.91,16.58-62.99,35.89-107.36
		c3.22-8.11,3.73-10.46,3.6-12.16c-0.03-0.28-0.13-0.74-0.23-1.07c-0.24-0.9-0.78-1.69-1.56-2.22c-0.97-0.67-2.19-0.87-3.33-0.53
		c-2.24,0.65-4.69,2.77-10.59,11.66c-9.58,14.64-20.27,38.88-31.75,72.01C4644.7,1035.26,4638.25,1064.31,4638.94,1083.6z"/>
	<path d="M4042.46,789.34c-2.5,0.73-5.23,3.09-11.82,13.01c-10.69,16.34-22.61,43.38-35.43,80.35
		c-14.98,42.39-22.17,74.81-21.4,96.34c0.07,1.85,0.22,3.61,0.38,5.47c1.3,15.14,5.22,27.49,11.66,36.72
		c6.63,9.52,15.87,14.49,27.1,14.49c1.12,0,2.26-0.05,3.42-0.15l0.66-0.06c11.81-1.01,22.07-9.11,30.49-24.06
		c8.02-14.2,12.62-30.1,13.68-47.52c0.01-1.08,0-2.24-0.06-3.02c-0.09-1.05-0.21-2.35-1.19-3.95c-1.34-1.78-2.88-2.62-4.77-2.44
		c-1.23,0.1-2.37,0.65-3.26,1.53c-1.49,1.17-2.71,2.96-3.79,5.54c-8.33,15.96-16.9,25.17-25.65,27.45
		c-0.21,0.07-0.48,0.09-0.98,0.13c-2.67,0.21-5.77-1.38-9.26-4.83c-5.61-5.32-8.98-14.13-10.02-26.18
		c-0.78-9.1-0.14-19.59,1.89-31.19c5.05-30.03,18.5-70.28,40.04-119.79c3.59-9.05,4.17-11.68,4.01-13.56
		c-0.03-0.32-0.15-0.83-0.26-1.19c-0.27-1-0.88-1.88-1.74-2.48C4045.09,789.19,4043.73,788.97,4042.46,789.34z"/>
	<path d="M3106.38,996.14c1.19,13.9,4.79,25.24,10.7,33.71c6.09,8.74,14.57,13.3,24.88,13.3c1.03,0,2.08-0.05,3.14-0.14l0.6-0.05
		c10.84-0.93,20.26-8.36,27.99-22.09c7.37-13.03,11.59-27.64,12.56-43.62c0.01-0.99,0-2.06-0.06-2.77
		c-0.08-0.96-0.19-2.16-1.09-3.62c-1.23-1.63-2.64-2.41-4.38-2.24c-1.13,0.09-2.18,0.59-2.99,1.41c-1.37,1.08-2.48,2.71-3.48,5.08
		c-7.65,14.65-15.51,23.11-23.54,25.2c-0.19,0.06-0.44,0.08-0.9,0.12c-2.45,0.2-5.29-1.26-8.5-4.44c-5.15-4.88-8.24-12.97-9.2-24.03
		c-0.71-8.36-0.13-17.98,1.74-28.63c4.63-27.56,16.99-64.52,36.76-109.97c3.3-8.31,3.82-10.72,3.68-12.45
		c-0.03-0.29-0.14-0.76-0.23-1.09c-0.25-0.92-0.8-1.73-1.6-2.28c-1-0.69-2.24-0.89-3.41-0.55c-2.3,0.67-4.8,2.84-10.85,11.95
		c-9.81,15-20.76,39.82-32.52,73.76c-13.75,38.92-20.36,68.67-19.65,88.44C3106.1,992.81,3106.23,994.43,3106.38,996.14z"/>
	<path d="M2534.39,727.97c1.19,13.9,4.79,25.24,10.7,33.71c6.09,8.74,14.57,13.3,24.88,13.3c1.03,0,2.08-0.05,3.14-0.14l0.61-0.05
		c10.84-0.93,20.26-8.36,27.99-22.09c7.37-13.03,11.59-27.64,12.56-43.62c0.01-0.99,0-2.06-0.06-2.77
		c-0.08-0.96-0.19-2.16-1.09-3.62c-1.23-1.63-2.65-2.41-4.38-2.24c-1.13,0.09-2.18,0.59-2.99,1.41c-1.37,1.08-2.48,2.71-3.48,5.08
		c-7.65,14.65-15.51,23.11-23.54,25.2c-0.19,0.06-0.44,0.08-0.9,0.12c-2.45,0.2-5.3-1.26-8.5-4.44c-5.15-4.88-8.24-12.97-9.2-24.03
		c-0.71-8.36-0.13-17.98,1.74-28.63c4.63-27.56,16.99-64.52,36.76-109.97c3.3-8.31,3.82-10.72,3.68-12.45
		c-0.03-0.29-0.14-0.76-0.23-1.09c-0.25-0.92-0.8-1.73-1.6-2.28c-1-0.69-2.24-0.89-3.41-0.55c-2.3,0.67-4.8,2.84-10.85,11.95
		c-9.81,15-20.76,39.82-32.52,73.76c-13.75,38.92-20.36,68.67-19.65,88.44C2534.1,724.65,2534.24,726.26,2534.39,727.97z"/>
	<path d="M1905.03,743.11c1.19,13.9,4.79,25.24,10.7,33.71c6.09,8.74,14.57,13.3,24.88,13.3c1.03,0,2.08-0.05,3.14-0.14l0.61-0.05
		c10.84-0.93,20.26-8.36,27.99-22.09c7.37-13.03,11.59-27.64,12.56-43.62c0.01-0.99,0-2.06-0.06-2.77
		c-0.08-0.96-0.19-2.16-1.09-3.62c-1.23-1.63-2.65-2.41-4.38-2.24c-1.13,0.09-2.18,0.59-2.99,1.41c-1.37,1.08-2.48,2.71-3.48,5.08
		c-7.65,14.65-15.51,23.11-23.54,25.2c-0.19,0.06-0.44,0.08-0.9,0.12c-2.45,0.2-5.3-1.26-8.5-4.44c-5.15-4.88-8.24-12.97-9.2-24.03
		c-0.71-8.36-0.13-17.98,1.74-28.63c4.63-27.56,16.99-64.52,36.76-109.97c3.3-8.31,3.82-10.72,3.68-12.45
		c-0.03-0.29-0.14-0.76-0.23-1.09c-0.25-0.92-0.8-1.73-1.6-2.28c-1-0.69-2.24-0.89-3.41-0.55c-2.3,0.67-4.8,2.84-10.85,11.95
		c-9.81,15-20.76,39.82-32.52,73.76c-13.75,38.92-20.36,68.67-19.65,88.44C1904.75,739.78,1904.88,741.39,1905.03,743.11z"/>
	<path d="M1454.25,1349.5c-1.23-1.63-2.65-2.41-4.38-2.24c-1.13,0.09-2.18,0.59-2.99,1.41c-1.37,1.08-2.48,2.71-3.48,5.08
		c-7.65,14.65-15.51,23.11-23.54,25.2c-0.19,0.06-0.44,0.08-0.9,0.12c-2.45,0.2-5.3-1.26-8.5-4.44c-5.15-4.88-8.24-12.97-9.2-24.03
		c-0.71-8.36-0.13-17.98,1.74-28.63c4.63-27.56,16.99-64.52,36.76-109.97c3.3-8.31,3.82-10.72,3.68-12.45
		c-0.03-0.29-0.14-0.76-0.23-1.09c-0.25-0.92-0.8-1.73-1.6-2.28c-1-0.69-2.24-0.89-3.41-0.55c-2.3,0.67-4.8,2.84-10.85,11.95
		c-9.81,15-20.76,39.82-32.52,73.76c-13.75,38.92-20.36,68.67-19.65,88.44c0.06,1.7,0.2,3.31,0.34,5.02
		c1.19,13.9,4.79,25.24,10.7,33.71c6.09,8.74,14.57,13.3,24.88,13.3c1.03,0,2.08-0.05,3.14-0.14l0.61-0.05
		c10.84-0.93,20.26-8.36,27.99-22.09c7.37-13.03,11.59-27.64,12.56-43.62c0.01-0.99,0-2.06-0.06-2.77
		C1455.25,1352.16,1455.14,1350.97,1454.25,1349.5z"/>
	<path d="M110.71,983.25c1.19,13.9,4.79,25.24,10.7,33.71c6.09,8.74,14.57,13.3,24.88,13.3c1.03,0,2.08-0.05,3.14-0.14l0.61-0.05
		c10.84-0.93,20.26-8.36,27.99-22.09c7.37-13.03,11.59-27.64,12.56-43.62c0.01-0.99,0-2.06-0.06-2.77
		c-0.08-0.96-0.19-2.16-1.09-3.62c-1.23-1.63-2.64-2.41-4.38-2.24c-1.13,0.09-2.18,0.59-2.99,1.41c-1.37,1.08-2.48,2.71-3.48,5.08
		c-7.65,14.65-15.51,23.11-23.54,25.2c-0.19,0.06-0.44,0.08-0.9,0.12c-2.45,0.2-5.3-1.26-8.5-4.44c-5.15-4.88-8.24-12.97-9.2-24.03
		c-0.71-8.36-0.13-17.98,1.74-28.63c4.63-27.56,16.99-64.52,36.76-109.97c0.81-2.04,1.45-3.72,1.95-5.12
		c94.43-47.8,156.74-96.69,185.39-145.5c9.73,4.77,16.42,9.2,19.9,13.19l2.95,3.39l2.16-3.93c8.92-16.21,13.14-27.85,12.9-35.59
		l-0.04-1.12l-0.73-0.85c-4.2-4.81-11.74-9.69-23.01-14.88c3.42-16.6,4.46-31.59,3.09-44.6c-1.06-9.95-3.45-17.14-7.33-21.99
		c-4.15-5.18-9.8-7.43-16.81-6.69c-13.3,1.52-25.51,10.06-36.35,25.72c-10.78,15.49-15.54,30.15-14.12,43.56
		c1.5,14.09,13.64,25.8,37.08,35.71c-19.18,23.61-49.24,49.92-89.42,78.27c-61.41,43.53-95.8,68.31-102.22,73.66
		c-9.18,7.61-10.72,10.21-10.47,12.6l0.14,1.29l1.01,0.81c1.54,1.25,2.97,1.38,3.89,1.28c0.07-0.01,0.15-0.02,0.24-0.03
		c1.5-0.2,4.34-1,11.96-4.54c-8.37,15.18-17.47,36.88-27.11,64.7c-13.75,38.92-20.36,68.67-19.65,88.44
		C110.43,979.93,110.56,981.54,110.71,983.25z M331,606.36c-0.1-0.89,1.15-2.92,4.97-5.66c4.82-3.41,7.66-4.4,9.22-4.61
		c0.06-0.01,0.11-0.02,0.17-0.02c1.65-0.17,6.04-0.64,8.76,8.7c0.78,3,1.23,5.26,1.44,7.33c0.33,3.1,0.31,6.34-0.07,9.68
		C333.44,613.27,331.16,607.87,331,606.36z"/>
	<path d="M4833.86,1345.35c-1.1-1.43-2.38-2.1-3.94-1.96c-1.01,0.08-1.95,0.52-2.69,1.23c-1.23,0.94-2.23,2.37-3.13,4.44
		c-6.87,12.81-13.93,20.2-21.15,22.03c-0.17,0.05-0.39,0.07-0.81,0.11c-2.2,0.17-4.76-1.1-7.63-3.88
		c-4.63-4.27-7.4-11.34-8.26-21.01c-0.64-7.31-0.12-15.72,1.56-25.03c4.16-24.1,15.26-56.41,33.02-96.14
		c2.96-7.26,3.44-9.37,3.31-10.89c-0.02-0.25-0.12-0.67-0.21-0.96c-0.22-0.8-0.72-1.51-1.43-1.99c-0.9-0.6-2.02-0.78-3.06-0.48
		c-2.06,0.59-4.32,2.48-9.75,10.44c-8.81,13.11-18.65,34.81-29.21,64.48c-12.35,34.02-18.29,60.04-17.65,77.31
		c0.06,1.48,0.18,2.89,0.31,4.39c1.07,12.15,4.3,22.06,9.61,29.47c5.47,7.64,13.09,11.63,22.35,11.63c0.92,0,1.87-0.04,2.82-0.12
		l0.54-0.05c9.74-0.81,18.2-7.31,25.15-19.31c6.62-11.4,10.41-24.16,11.28-38.14c0-0.86,0-1.8-0.05-2.42
		C4834.77,1347.68,4834.67,1346.63,4833.86,1345.35z"/>
	<path d="M2822.42,935.1c0.5-1.16,1.02-2.23,1.02-3.46c0-3.09-1.86-4.75-5.59-4.75c-5.74,0-16.16,11.65-16.16,11.65
		c-0.07,1.12-4.46,1.91-20.62,40.95c-17.94,43.79-26.91,75.22-26.91,94.49c0,23.01,11.01,34.52,33.02,34.52
		c22.92,0,42.23-8.93,57.72-26.75c5.42-6.04,9.29-21,11.68-44.88c0.09-1.29,0.24-2.87,0.24-4.16c0-19.91-15.59-40.13-46.72-60.24
		c-1.69-1.09-2.31-3.01-1.37-4.63C2810.82,964.21,2811.82,959.93,2822.42,935.1z M2841.34,1047.31
		c-4.42,5.17-12.29,10.35-23.79,15.52c-11.5,5.12-21.67,7.69-30.38,7.69c-9.84,0-14.73-4.38-14.73-13.29
		c0-14.1,5.42-29.91,16.25-47.4C2823.81,1026.46,2841.34,1038.96,2841.34,1047.31z"/>
</g>
</svg>
